<svg width="63" height="63" viewBox="0 0 63 63" fill="none" xmlns="http://www.w3.org/2000/svg">
<path fill-rule="evenodd" clip-rule="evenodd" d="M31.5 14.6512C32.7137 14.6512 33.6977 15.6351 33.6977 16.8488V34.4302C33.6977 35.644 32.7137 36.6279 31.5 36.6279C30.2863 36.6279 29.3023 35.644 29.3023 34.4302V16.8488C29.3023 15.6351 30.2863 14.6512 31.5 14.6512Z" fill="#EA011D"/>
<path fill-rule="evenodd" clip-rule="evenodd" d="M32.9995 44.5144C33.9016 45.3263 33.9748 46.7159 33.1628 47.6181L33.1335 47.6506C32.3216 48.5528 30.932 48.6259 30.0298 47.814C29.1277 47.002 29.0545 45.6125 29.8665 44.7103L29.8958 44.6777C30.7077 43.7756 32.0973 43.7024 32.9995 44.5144Z" fill="#EA011D"/>
<path fill-rule="evenodd" clip-rule="evenodd" d="M31.5 4.39535C16.5305 4.39535 4.39535 16.5305 4.39535 31.5C4.39535 46.4695 16.5305 58.6047 31.5 58.6047C46.4695 58.6047 58.6047 46.4695 58.6047 31.5C58.6047 16.5305 46.4695 4.39535 31.5 4.39535ZM0 31.5C0 14.103 14.103 0 31.5 0C48.897 0 63 14.103 63 31.5C63 48.897 48.897 63 31.5 63C14.103 63 0 48.897 0 31.5Z" fill="#EA011D"/>
</svg>
