<svg width="2094" height="1115" viewBox="0 0 2094 1115" fill="none" xmlns="http://www.w3.org/2000/svg">
<path d="M1556.88 1062.07V1065.44H939.385L900.607 1105.02H54.0621L5.83594 1055.69L5.83594 632.655H9.12221L9.12221 1054.34L55.4587 1101.66H899.293L937.988 1062.07H1556.88Z" fill="#FFE600"/>
<path d="M2093.77 52.6156V1017.53L2093.28 1018.03L2008.16 1105.02L980.464 1105.02V1101.66L2006.77 1101.66L2090.49 1016.1V53.9604L2040.95 3.36157L369.462 3.36157L322.88 51.0187H47.3252L11.6691 87.497L11.6691 552.469H8.38281L8.38281 86.0681L45.9285 47.6566H321.483L368.148 -0.000488281L2042.34 -0.000488281L2093.77 52.6156Z" fill="#FFE600"/>
<g opacity="0.5">
<path fill-rule="evenodd" clip-rule="evenodd" d="M2061.64 69.6669V1004.32L1985.15 1082.57L1671.4 1082.57L1624.57 1034.58H905.941L868.806 1072.57H75.2519L38.2812 1034.75V1034.41L39.4314 118.501L71.4726 85.8049H338.154L393.61 28.9861L2021.88 28.9861L2061.64 69.6669ZM2060 1003.65V70.3394L2021.22 30.7512L394.349 30.7512L338.893 87.486H72.1299L41.1567 119.257L39.9244 1034.07L75.9091 1070.97H868.148L905.283 1032.98H1625.22L1672.14 1080.89L1984.5 1080.89L2060 1003.65Z" fill="#00FF00"/>
</g>
<path d="M10.5161 541.366C16.3492 541.366 21.0322 546.157 21.0322 552.124C21.0322 558.092 16.3492 562.883 10.5161 562.883C4.7651 562.883 0 558.092 0 552.124C0 546.157 4.7651 541.366 10.5161 541.366Z" fill="#00FF00"/>
<path d="M10.5161 621.881C16.3492 621.881 21.0322 626.756 21.0322 632.64C21.0322 638.608 16.3492 643.398 10.5161 643.398C4.7651 643.398 0 638.608 0 632.64C0 626.756 4.7651 621.881 10.5161 621.881Z" fill="#00FF00"/>
<path d="M976.27 1092.57C982.103 1092.57 986.786 1097.44 986.786 1103.33C986.786 1109.3 982.103 1114.09 976.27 1114.09C970.437 1114.09 965.754 1109.3 965.754 1103.33C965.754 1097.44 970.437 1092.57 976.27 1092.57Z" fill="#00FF00"/>
<path d="M1562.79 1052.65C1568.54 1052.65 1573.3 1057.53 1573.3 1063.41C1573.3 1069.38 1568.54 1074.17 1562.79 1074.17C1556.95 1074.17 1552.27 1069.38 1552.27 1063.41C1552.27 1057.53 1556.95 1052.65 1562.79 1052.65Z" fill="#00FF00"/>
</svg>
