<svg width="1364" height="436" viewBox="0 0 1364 436" fill="none" xmlns="http://www.w3.org/2000/svg">
<path d="M1175.53 0.25H1336.88C1338.19 0.250041 1339.49 0.586039 1340.64 1.22559L1358.82 11.3232C1361.28 12.6901 1362.8 15.284 1362.8 18.0986V413.506C1362.8 416.32 1361.28 418.913 1358.82 420.28L1333.25 434.482C1332.1 435.122 1330.81 435.458 1329.49 435.458H1251.34C1250.02 435.458 1248.73 435.124 1247.58 434.488L1215.56 416.764C1214.34 416.087 1212.97 415.731 1211.57 415.731H736.466C735.069 415.731 733.695 416.086 732.473 416.762L707.317 430.674C706.169 431.309 704.878 431.642 703.566 431.642H102.248C100.931 431.642 99.6356 431.307 98.4844 430.667L4.23633 378.309C1.77593 376.942 0.25 374.348 0.25 371.533V42.2158C0.250117 39.4014 1.77604 36.8082 4.23633 35.4414L57.2842 5.97168C58.4292 5.33557 59.7165 4.99968 61.0264 4.99609L110.402 4.86328C111.726 4.85972 113.03 5.19486 114.188 5.83789L139.971 20.1621C141.196 20.8428 142.575 21.2002 143.977 21.2002H391.881C393.287 21.2002 394.671 20.8404 395.899 20.1553L425.312 3.75098C426.466 3.10747 427.766 2.7696 429.087 2.76953H855.44C856.757 2.76953 858.053 3.10554 859.204 3.74512L886.423 18.8662C887.648 19.5471 889.028 19.9043 890.43 19.9043H1136.01C1137.41 19.9042 1138.79 19.5469 1140.01 18.8662L1171.77 1.22559C1172.92 0.585991 1174.22 0.25 1175.53 0.25Z" stroke="url(#paint0_linear_2609_8307)" stroke-width="0.5"/>
<defs>
<linearGradient id="paint0_linear_2609_8307" x1="8.90072e-07" y1="17.4587" x2="1372.77" y2="400.935" gradientUnits="userSpaceOnUse">
<stop stop-color="#FFE600"/>
<stop offset="1" stop-color="#2E2E38"/>
</linearGradient>
</defs>
</svg>
