<svg width="2025" height="788" viewBox="0 0 2025 788" fill="none" xmlns="http://www.w3.org/2000/svg">
<path d="M44.8848 25.2959C44.8848 27.0186 44.6865 28.5771 44.29 29.9717C43.9072 31.3662 43.3672 32.6104 42.6699 33.7041C41.9727 34.7979 41.1455 35.7412 40.1885 36.5342C39.2451 37.3135 38.2129 37.9629 37.0918 38.4824C35.9844 39.002 34.8086 39.3848 33.5645 39.6309C32.334 39.877 31.0898 40 29.832 40H21.0547V10.5918H30.2627C32.3545 10.5918 34.2959 10.8584 36.0869 11.3916C37.8779 11.9111 39.4229 12.752 40.7217 13.9141C42.0205 15.0762 43.0391 16.5938 43.7773 18.4668C44.5156 20.3398 44.8848 22.6162 44.8848 25.2959ZM38.835 25.2959C38.835 23.792 38.6641 22.4795 38.3223 21.3584C37.9941 20.2373 37.4746 19.3008 36.7637 18.5488C36.0664 17.7969 35.1641 17.2363 34.0566 16.8672C32.9492 16.498 31.6162 16.3135 30.0576 16.3135H26.9404V34.2783H29.832C31.377 34.2783 32.71 34.0664 33.8311 33.6426C34.9658 33.2051 35.9023 32.5967 36.6406 31.8174C37.3789 31.0244 37.9258 30.0742 38.2812 28.9668C38.6504 27.8594 38.835 26.6357 38.835 25.2959ZM71.8936 31.0996C71.8936 32.4941 71.668 33.7656 71.2168 34.9141C70.7656 36.0625 70.0684 37.0537 69.125 37.8877C68.1816 38.708 66.9854 39.3438 65.5361 39.7949C64.0869 40.2461 62.3574 40.4717 60.3477 40.4717C59.1172 40.4717 57.9346 40.3418 56.7998 40.082C55.665 39.8359 54.6055 39.4873 53.6211 39.0361C52.6367 38.5713 51.7412 38.0107 50.9346 37.3545C50.1416 36.6846 49.4717 35.9395 48.9248 35.1191L53.1699 31.3457C54.1953 32.5488 55.3506 33.4102 56.6357 33.9297C57.9209 34.4492 59.2676 34.709 60.6758 34.709C61.6738 34.709 62.4805 34.6406 63.0957 34.5039C63.7109 34.3535 64.2236 34.1553 64.6338 33.9092C65.0576 33.6494 65.3584 33.3486 65.5361 33.0068C65.7139 32.665 65.8027 32.166 65.8027 31.5098C65.8027 31.0449 65.7207 30.6348 65.5566 30.2793C65.3926 29.9102 65.0713 29.5752 64.5928 29.2744C64.1279 28.9736 63.4648 28.6865 62.6035 28.4131C61.7559 28.1396 60.6348 27.8457 59.2402 27.5312C57.8867 27.2168 56.6426 26.8545 55.5078 26.4443C54.3867 26.0342 53.4229 25.501 52.6162 24.8447C51.8096 24.1885 51.1807 23.375 50.7295 22.4043C50.2783 21.4199 50.0527 20.2031 50.0527 18.7539C50.0527 17.4277 50.3262 16.2314 50.873 15.165C51.4199 14.0986 52.165 13.1963 53.1084 12.458C54.0654 11.7061 55.1797 11.1318 56.4512 10.7354C57.7363 10.3389 59.1035 10.1406 60.5527 10.1406C61.6738 10.1406 62.7334 10.2432 63.7314 10.4482C64.7432 10.6396 65.7275 10.9609 66.6846 11.4121C67.6553 11.8633 68.4756 12.3418 69.1455 12.8477C69.8154 13.3535 70.5195 13.9893 71.2578 14.7549L67.0127 18.877C66.4521 18.3027 65.96 17.8584 65.5361 17.5439C65.1123 17.2295 64.627 16.9424 64.0801 16.6826C63.5332 16.4092 62.959 16.2041 62.3574 16.0674C61.7559 15.917 61.0859 15.8418 60.3477 15.8418C59.5547 15.8418 58.8916 15.9238 58.3584 16.0879C57.8252 16.2383 57.3945 16.4365 57.0664 16.6826C56.7383 16.9287 56.499 17.209 56.3486 17.5234C56.2119 17.8379 56.1436 18.1592 56.1436 18.4873C56.1436 18.9521 56.2324 19.3486 56.4102 19.6768C56.5879 20.0049 56.9023 20.2988 57.3535 20.5586C57.8047 20.8047 58.4062 21.0439 59.1582 21.2764C59.9238 21.4951 60.8945 21.7412 62.0703 22.0146C63.7383 22.4111 65.126 22.8281 66.2334 23.2656C67.3408 23.6895 68.3184 24.2363 69.166 24.9062C70.0137 25.5762 70.6768 26.4238 71.1553 27.4492C71.6475 28.4746 71.8936 29.6914 71.8936 31.0996ZM94.7188 19.1641C94.3906 18.5352 94.0762 18.0635 93.7754 17.749C93.4746 17.4346 93.1055 17.1406 92.668 16.8672C92.2305 16.5801 91.7451 16.3613 91.2119 16.2109C90.6787 16.0605 90.0498 15.9854 89.3252 15.9854C88.2178 15.9854 87.2334 16.2178 86.3721 16.6826C85.5244 17.1338 84.7998 17.7695 84.1982 18.5898C83.6104 19.4102 83.1592 20.3945 82.8447 21.543C82.5439 22.6777 82.3936 23.9287 82.3936 25.2959C82.3936 26.6221 82.5508 27.8525 82.8652 28.9873C83.1797 30.1221 83.6309 31.1064 84.2188 31.9404C84.8203 32.7744 85.5518 33.4307 86.4131 33.9092C87.2744 34.3877 88.2588 34.627 89.3662 34.627C90.5693 34.627 91.6084 34.3672 92.4834 33.8477C93.3721 33.3281 94.2539 32.3438 95.1289 30.8945L100.092 33.8271C99.5859 34.8662 98.9844 35.7959 98.2871 36.6162C97.5898 37.4365 96.79 38.1338 95.8877 38.708C94.9854 39.2822 93.9736 39.7197 92.8525 40.0205C91.7451 40.3213 90.5283 40.4717 89.2021 40.4717C87.8623 40.4717 86.6387 40.3145 85.5312 40C84.4375 39.6719 83.4053 39.2002 82.4346 38.585C81.4639 37.9697 80.6025 37.2178 79.8506 36.3291C79.0986 35.4404 78.4971 34.5176 78.0459 33.5605C77.5947 32.6035 77.1982 31.4346 76.8564 30.0537C76.5283 28.6592 76.3643 27.0732 76.3643 25.2959C76.3643 23.0674 76.6855 21.0234 77.3281 19.1641C77.9707 17.3047 78.8662 15.7051 80.0146 14.3652C81.1631 13.0254 82.5371 11.9863 84.1367 11.248C85.7363 10.5098 87.4932 10.1406 89.4072 10.1406C91.8818 10.1406 94.0283 10.6807 95.8467 11.7607C97.665 12.8271 99.1074 14.4541 100.174 16.6416L94.7188 19.1641ZM123.102 40L117.852 29.418H111.925V40H106.039V10.5918H119.738C121.119 10.5918 122.425 10.7832 123.655 11.166C124.886 11.5488 125.959 12.1299 126.875 12.9092C127.805 13.6885 128.536 14.666 129.069 15.8418C129.603 17.0039 129.869 18.3643 129.869 19.9229C129.869 21.0986 129.746 22.1309 129.5 23.0195C129.254 23.9082 128.885 24.708 128.393 25.4189C127.914 26.1299 127.34 26.7383 126.67 27.2441C126 27.75 125.187 28.1943 124.229 28.5771L129.869 40H123.102ZM123.819 20.0459C123.819 19.335 123.717 18.7471 123.512 18.2822C123.307 17.8037 123.006 17.4209 122.609 17.1338C122.227 16.8467 121.782 16.6416 121.276 16.5186C120.784 16.3818 120.23 16.3135 119.615 16.3135H111.925V23.8809H119.615C120.354 23.8809 120.976 23.7988 121.481 23.6348C122.001 23.457 122.432 23.2109 122.773 22.8965C123.129 22.5684 123.389 22.1719 123.553 21.707C123.73 21.2422 123.819 20.6885 123.819 20.0459ZM160.651 16.3955V40H154.766V16.3955H146.316V10.5918H169.08V16.3955H160.651ZM183.107 24.7217C182.643 24.2979 182.13 23.9561 181.569 23.6963C181.009 23.4229 180.4 23.2861 179.744 23.2861C178.377 23.2861 177.413 23.6826 176.853 24.4756C176.292 25.2549 176.012 26.4512 176.012 28.0645V40H170.208V17.9541H176.012V19.4102C176.244 19.1641 176.518 18.9248 176.832 18.6924C177.16 18.46 177.516 18.248 177.898 18.0566C178.295 17.8516 178.719 17.708 179.17 17.626C179.621 17.5303 180.079 17.4824 180.544 17.4824C181.487 17.4824 182.308 17.6465 183.005 17.9746C183.702 18.2891 184.242 18.6445 184.625 19.041L183.107 24.7217ZM205.543 28.9873C205.543 29.4111 205.536 29.7734 205.522 30.0742C205.509 30.375 205.488 30.6348 205.461 30.8535H192.274C192.329 31.6055 192.493 32.248 192.767 32.7812C193.054 33.3008 193.402 33.7246 193.812 34.0527C194.236 34.3809 194.708 34.6201 195.228 34.7705C195.747 34.9209 196.273 34.9961 196.807 34.9961C197.203 34.9961 197.572 34.9688 197.914 34.9141C198.256 34.8457 198.598 34.7432 198.939 34.6064C199.295 34.4561 199.603 34.2852 199.862 34.0938C200.136 33.9023 200.375 33.6904 200.58 33.458L204.702 36.8828C204.265 37.457 203.745 37.9697 203.144 38.4209C202.542 38.8584 201.893 39.2344 201.195 39.5488C200.498 39.8496 199.773 40.0752 199.021 40.2256C198.283 40.3896 197.545 40.4717 196.807 40.4717C195.59 40.4717 194.496 40.3213 193.525 40.0205C192.568 39.7334 191.728 39.3438 191.003 38.8516C190.278 38.3594 189.636 37.792 189.075 37.1494C188.515 36.4932 188.043 35.7686 187.66 34.9756C187.277 34.1689 186.977 33.2734 186.758 32.2891C186.539 31.291 186.43 30.1904 186.43 28.9873C186.43 27.3057 186.676 25.7607 187.168 24.3525C187.674 22.9307 188.364 21.7139 189.239 20.7021C190.128 19.6904 191.167 18.9043 192.356 18.3438C193.56 17.7695 194.858 17.4824 196.253 17.4824C197.729 17.4824 199.042 17.79 200.19 18.4053C201.339 19.0068 202.31 19.834 203.103 20.8867C203.896 21.9258 204.497 23.1426 204.907 24.5371C205.331 25.9316 205.543 27.415 205.543 28.9873ZM199.903 26.4854C199.862 25.9932 199.753 25.5078 199.575 25.0293C199.411 24.5508 199.165 24.127 198.837 23.7578C198.522 23.3887 198.126 23.0947 197.647 22.876C197.183 22.6436 196.622 22.5273 195.966 22.5273C195.433 22.5273 194.954 22.6299 194.53 22.835C194.12 23.04 193.758 23.3203 193.443 23.6758C193.143 24.0312 192.896 24.4482 192.705 24.9268C192.527 25.4053 192.411 25.9248 192.356 26.4854H199.903ZM223.467 40V28.0645C223.467 26.3281 223.187 25.043 222.626 24.209C222.079 23.375 221.115 22.958 219.734 22.958C219.133 22.958 218.6 23.04 218.135 23.2041C217.67 23.3682 217.273 23.6416 216.945 24.0244C216.631 24.4072 216.385 24.9199 216.207 25.5625C216.043 26.1914 215.961 26.9844 215.961 27.9414V40H210.157V17.9541H215.961V19.4102C216.207 19.1641 216.501 18.9248 216.843 18.6924C217.198 18.46 217.608 18.248 218.073 18.0566C218.538 17.8516 219.023 17.708 219.529 17.626C220.049 17.5303 220.582 17.4824 221.129 17.4824C222.537 17.4824 223.747 17.7217 224.759 18.2002C225.784 18.665 226.632 19.335 227.302 20.21C227.972 21.0713 228.464 22.124 228.778 23.3682C229.106 24.6123 229.271 26.0137 229.271 27.5723V40H223.467ZM246.784 40V38.6055C246.497 38.8652 246.203 39.0977 245.902 39.3027C245.602 39.4941 245.26 39.6924 244.877 39.8975C244.494 40.0889 244.077 40.2324 243.626 40.3281C243.175 40.4238 242.676 40.4717 242.129 40.4717C240.953 40.4717 239.846 40.2461 238.807 39.7949C237.768 39.3301 236.858 38.6191 236.079 37.6621C235.3 36.7051 234.685 35.4883 234.233 34.0117C233.782 32.5215 233.557 30.751 233.557 28.7002C233.557 27.0596 233.748 25.5557 234.131 24.1885C234.514 22.8076 235.067 21.625 235.792 20.6406C236.517 19.6426 237.412 18.8701 238.479 18.3232C239.545 17.7627 240.762 17.4824 242.129 17.4824C242.635 17.4824 243.106 17.5234 243.544 17.6055C243.981 17.6875 244.412 17.8242 244.836 18.0156C245.26 18.1934 245.622 18.3779 245.923 18.5693C246.237 18.7607 246.524 18.9727 246.784 19.2051V12.2734L252.588 9.38184V40H246.784ZM246.784 24.8447C246.565 24.5439 246.333 24.2842 246.087 24.0654C245.841 23.8467 245.554 23.6553 245.226 23.4912C244.911 23.3135 244.549 23.1836 244.139 23.1016C243.742 23.0059 243.325 22.958 242.888 22.958C241.767 22.958 240.912 23.4297 240.324 24.373C239.736 25.3164 239.442 26.7178 239.442 28.5771C239.442 29.7119 239.531 30.6826 239.709 31.4893C239.887 32.2959 240.14 32.959 240.468 33.4785C240.796 33.998 241.192 34.3809 241.657 34.627C242.122 34.873 242.642 34.9961 243.216 34.9961C243.667 34.9961 244.063 34.9551 244.405 34.873C244.761 34.7773 245.075 34.6475 245.349 34.4834C245.636 34.3193 245.896 34.1279 246.128 33.9092C246.36 33.6768 246.579 33.4238 246.784 33.1504V24.8447ZM297.5 40H291.04L288.723 33.458H277.977L275.659 40H269.363L280.622 10.5918H286.323L297.5 40ZM286.713 27.8594L283.35 18.2822L279.986 27.8594H286.713ZM315.301 40V28.0645C315.301 26.3281 315.021 25.043 314.46 24.209C313.913 23.375 312.949 22.958 311.568 22.958C310.967 22.958 310.434 23.04 309.969 23.2041C309.504 23.3682 309.107 23.6416 308.779 24.0244C308.465 24.4072 308.219 24.9199 308.041 25.5625C307.877 26.1914 307.795 26.9844 307.795 27.9414V40H301.991V17.9541H307.795V19.4102C308.041 19.1641 308.335 18.9248 308.677 18.6924C309.032 18.46 309.442 18.248 309.907 18.0566C310.372 17.8516 310.857 17.708 311.363 17.626C311.883 17.5303 312.416 17.4824 312.963 17.4824C314.371 17.4824 315.581 17.7217 316.593 18.2002C317.618 18.665 318.466 19.335 319.136 20.21C319.806 21.0713 320.298 22.124 320.612 23.3682C320.94 24.6123 321.104 26.0137 321.104 27.5723V40H315.301ZM338.659 40V38.5234C338.399 38.7969 338.105 39.0498 337.777 39.2822C337.449 39.501 337.053 39.7129 336.588 39.918C336.123 40.1094 335.651 40.2461 335.173 40.3281C334.694 40.4238 334.202 40.4717 333.696 40.4717C332.671 40.4717 331.666 40.3145 330.682 40C329.697 39.6719 328.815 39.1865 328.036 38.5439C327.271 37.9014 326.648 37.0879 326.17 36.1035C325.705 35.1191 325.473 33.957 325.473 32.6172C325.473 31.4004 325.705 30.334 326.17 29.418C326.635 28.502 327.271 27.7432 328.077 27.1416C328.884 26.5264 329.827 26.0684 330.907 25.7676C332.001 25.4531 333.17 25.2959 334.414 25.2959C335.439 25.2959 336.287 25.3848 336.957 25.5625C337.627 25.7402 338.194 25.9453 338.659 26.1777V25.0908C338.659 24.2705 338.386 23.6006 337.839 23.0811C337.292 22.5479 336.513 22.2812 335.501 22.2812C334.216 22.2812 333.17 22.377 332.363 22.5684C331.557 22.7461 330.593 23.1357 329.472 23.7373L327.236 19.7178C328.631 18.8975 329.95 18.3232 331.194 17.9951C332.452 17.6533 333.888 17.4824 335.501 17.4824C336.841 17.4824 338.058 17.6533 339.151 17.9951C340.259 18.3369 341.202 18.8359 341.981 19.4922C342.774 20.1484 343.383 20.9551 343.807 21.9121C344.244 22.8691 344.463 23.9697 344.463 25.2139V40H338.659ZM338.659 30.751C338.413 30.6006 338.16 30.4707 337.9 30.3613C337.641 30.2383 337.354 30.1426 337.039 30.0742C336.725 29.9922 336.369 29.9307 335.973 29.8896C335.59 29.8486 335.139 29.8281 334.619 29.8281C333.525 29.8281 332.691 30.0742 332.117 30.5664C331.557 31.0449 331.276 31.7285 331.276 32.6172C331.276 33 331.331 33.3691 331.44 33.7246C331.563 34.0801 331.755 34.3945 332.015 34.668C332.288 34.9277 332.637 35.1396 333.061 35.3037C333.484 35.4678 334.004 35.5498 334.619 35.5498C335.098 35.5498 335.542 35.4951 335.952 35.3857C336.376 35.2764 336.759 35.1328 337.101 34.9551C337.456 34.7637 337.764 34.5449 338.023 34.2988C338.283 34.0527 338.495 33.7998 338.659 33.54V30.751ZM350.103 40V12.2734L355.906 9.38184V40H350.103ZM371.328 47.7725H365.627L368.56 40L359.987 17.9541H366.365L371.41 32.8018L376.455 17.9541H382.669L371.328 47.7725ZM402.295 19.6357L400.449 24.209C399.355 23.6211 398.241 23.1836 397.106 22.8965C395.985 22.5957 394.96 22.4453 394.03 22.4453C393.005 22.4453 392.253 22.5479 391.774 22.7529C391.296 22.9443 391.057 23.3203 391.057 23.8809C391.057 24.1133 391.111 24.3184 391.221 24.4961C391.33 24.6738 391.549 24.8516 391.877 25.0293C392.205 25.207 392.663 25.4053 393.251 25.624C393.853 25.8428 394.646 26.1094 395.63 26.4238C396.614 26.752 397.551 27.1074 398.439 27.4902C399.328 27.8594 400.107 28.3105 400.777 28.8438C401.447 29.377 401.98 30.0264 402.377 30.792C402.773 31.5439 402.972 32.4736 402.972 33.5811C402.972 34.8525 402.732 35.9258 402.254 36.8008C401.789 37.6758 401.146 38.3867 400.326 38.9336C399.52 39.4668 398.569 39.8564 397.476 40.1025C396.396 40.3486 395.233 40.4717 393.989 40.4717C392.308 40.4717 390.653 40.2461 389.026 39.7949C387.399 39.3301 385.971 38.7012 384.74 37.9082L386.688 33.499C387.864 34.1553 389.074 34.6543 390.318 34.9961C391.576 35.3379 392.909 35.5088 394.317 35.5088C395.411 35.5088 396.177 35.3789 396.614 35.1191C397.052 34.8457 397.271 34.415 397.271 33.8271C397.271 33.5811 397.216 33.3623 397.106 33.1709C396.997 32.9658 396.812 32.7812 396.553 32.6172C396.307 32.4395 395.979 32.2686 395.568 32.1045C395.158 31.9404 394.646 31.7695 394.03 31.5918C392.704 31.1953 391.508 30.7988 390.441 30.4023C389.375 30.0059 388.459 29.5342 387.693 28.9873C386.941 28.4268 386.36 27.7568 385.95 26.9775C385.54 26.1846 385.335 25.207 385.335 24.0449C385.335 22.8965 385.547 21.9121 385.971 21.0918C386.408 20.2578 387.017 19.5742 387.796 19.041C388.575 18.5078 389.505 18.1182 390.585 17.8721C391.665 17.6123 392.854 17.4824 394.153 17.4824C395.548 17.4824 396.956 17.6807 398.378 18.0771C399.813 18.46 401.119 18.9795 402.295 19.6357ZM414.538 12.8271C414.538 13.2783 414.449 13.709 414.271 14.1191C414.094 14.5156 413.854 14.8643 413.554 15.165C413.253 15.4658 412.897 15.7051 412.487 15.8828C412.091 16.0605 411.667 16.1494 411.216 16.1494C410.765 16.1494 410.334 16.0605 409.924 15.8828C409.527 15.7051 409.179 15.4658 408.878 15.165C408.577 14.8643 408.338 14.5156 408.16 14.1191C407.982 13.709 407.894 13.2783 407.894 12.8271C407.894 12.376 407.982 11.9521 408.16 11.5557C408.338 11.1455 408.577 10.79 408.878 10.4893C409.179 10.1885 409.527 9.94922 409.924 9.77148C410.334 9.59375 410.765 9.50488 411.216 9.50488C411.667 9.50488 412.091 9.59375 412.487 9.77148C412.897 9.94922 413.253 10.1885 413.554 10.4893C413.854 10.79 414.094 11.1455 414.271 11.5557C414.449 11.9521 414.538 12.376 414.538 12.8271ZM408.304 40V17.9541H414.107V40H408.304ZM436.707 19.6357L434.861 24.209C433.768 23.6211 432.653 23.1836 431.519 22.8965C430.397 22.5957 429.372 22.4453 428.442 22.4453C427.417 22.4453 426.665 22.5479 426.187 22.7529C425.708 22.9443 425.469 23.3203 425.469 23.8809C425.469 24.1133 425.523 24.3184 425.633 24.4961C425.742 24.6738 425.961 24.8516 426.289 25.0293C426.617 25.207 427.075 25.4053 427.663 25.624C428.265 25.8428 429.058 26.1094 430.042 26.4238C431.026 26.752 431.963 27.1074 432.852 27.4902C433.74 27.8594 434.52 28.3105 435.189 28.8438C435.859 29.377 436.393 30.0264 436.789 30.792C437.186 31.5439 437.384 32.4736 437.384 33.5811C437.384 34.8525 437.145 35.9258 436.666 36.8008C436.201 37.6758 435.559 38.3867 434.738 38.9336C433.932 39.4668 432.981 39.8564 431.888 40.1025C430.808 40.3486 429.646 40.4717 428.401 40.4717C426.72 40.4717 425.065 40.2461 423.438 39.7949C421.812 39.3301 420.383 38.7012 419.152 37.9082L421.101 33.499C422.276 34.1553 423.486 34.6543 424.73 34.9961C425.988 35.3379 427.321 35.5088 428.729 35.5088C429.823 35.5088 430.589 35.3789 431.026 35.1191C431.464 34.8457 431.683 34.415 431.683 33.8271C431.683 33.5811 431.628 33.3623 431.519 33.1709C431.409 32.9658 431.225 32.7812 430.965 32.6172C430.719 32.4395 430.391 32.2686 429.98 32.1045C429.57 31.9404 429.058 31.7695 428.442 31.5918C427.116 31.1953 425.92 30.7988 424.854 30.4023C423.787 30.0059 422.871 29.5342 422.105 28.9873C421.354 28.4268 420.772 27.7568 420.362 26.9775C419.952 26.1846 419.747 25.207 419.747 24.0449C419.747 22.8965 419.959 21.9121 420.383 21.0918C420.82 20.2578 421.429 19.5742 422.208 19.041C422.987 18.5078 423.917 18.1182 424.997 17.8721C426.077 17.6123 427.267 17.4824 428.565 17.4824C429.96 17.4824 431.368 17.6807 432.79 18.0771C434.226 18.46 435.531 18.9795 436.707 19.6357Z" fill="white"/>
<g filter="url(#filter0_d_2609_8513)">
<path d="M34.5635 98.54H1990C1999.25 98.54 2006.74 106.036 2006.74 115.282V700.718C2006.74 709.964 1999.25 717.46 1990 717.46H34.5635C25.317 717.46 17.8213 709.964 17.8213 700.718V115.282C17.8213 106.036 25.317 98.54 34.5635 98.54Z" stroke="url(#paint0_linear_2609_8513)" stroke-width="1.08014" shape-rendering="crispEdges"/>
<path d="M72.1172 150.08L68.2207 142.328H63.791V150.08H60.9062V130.475H69.5059C70.3626 130.475 71.1693 130.593 71.9258 130.83C72.6914 131.058 73.3613 131.413 73.9355 131.896C74.5098 132.37 74.9655 132.977 75.3027 133.715C75.64 134.453 75.8086 135.324 75.8086 136.326C75.8086 137.11 75.7083 137.821 75.5078 138.459C75.3073 139.088 75.0202 139.644 74.6465 140.127C74.2728 140.601 73.8216 141.002 73.293 141.33C72.7643 141.658 72.1673 141.904 71.502 142.068L75.4941 150.08H72.1172ZM72.8418 136.422C72.8418 135.911 72.7598 135.46 72.5957 135.068C72.4408 134.667 72.2174 134.335 71.9258 134.07C71.6341 133.797 71.2832 133.592 70.873 133.455C70.4629 133.318 70.0072 133.25 69.5059 133.25H63.791V139.553H69.5059C69.998 139.553 70.4447 139.489 70.8457 139.361C71.2559 139.234 71.6068 139.042 71.8984 138.787C72.1992 138.523 72.4316 138.195 72.5957 137.803C72.7598 137.411 72.8418 136.951 72.8418 136.422ZM91.1484 142.438C91.1484 142.702 91.1393 142.948 91.1211 143.176C91.1029 143.404 91.0846 143.595 91.0664 143.75H81.3457C81.4277 144.461 81.5827 145.072 81.8105 145.582C82.0384 146.083 82.3164 146.498 82.6445 146.826C82.9727 147.154 83.3418 147.396 83.752 147.551C84.1712 147.706 84.6042 147.783 85.0508 147.783C85.3698 147.783 85.6706 147.756 85.9531 147.701C86.2357 147.646 86.5046 147.564 86.7598 147.455C87.0241 147.346 87.2565 147.236 87.457 147.127C87.6576 147.008 87.9173 146.835 88.2363 146.607L89.9453 148.453C89.5807 148.799 89.2298 149.082 88.8926 149.301C88.5645 149.51 88.2044 149.702 87.8125 149.875C87.4297 150.039 86.9922 150.167 86.5 150.258C86.0078 150.349 85.4655 150.395 84.873 150.395C84.235 150.395 83.638 150.303 83.082 150.121C82.526 149.948 82.0339 149.72 81.6055 149.438C81.1771 149.146 80.7897 148.818 80.4434 148.453C80.1061 148.079 79.7826 147.605 79.4727 147.031C79.1628 146.448 78.9258 145.801 78.7617 145.09C78.5977 144.37 78.5156 143.586 78.5156 142.738C78.5156 141.499 78.6706 140.4 78.9805 139.443C79.2995 138.486 79.7415 137.684 80.3066 137.037C80.8717 136.39 81.5508 135.902 82.3438 135.574C83.1367 135.237 84.0072 135.068 84.9551 135.068C86.0033 135.068 86.9147 135.269 87.6895 135.67C88.4642 136.062 89.1068 136.595 89.6172 137.27C90.1276 137.935 90.5104 138.714 90.7656 139.607C91.0208 140.501 91.1484 141.444 91.1484 142.438ZM88.2363 141.371C88.1999 140.87 88.1087 140.396 87.9629 139.949C87.8262 139.503 87.6165 139.111 87.334 138.773C87.0605 138.436 86.7096 138.172 86.2812 137.98C85.862 137.78 85.3561 137.68 84.7637 137.68C84.2533 137.68 83.8066 137.766 83.4238 137.939C83.041 138.104 82.7129 138.34 82.4395 138.65C82.166 138.96 81.9382 139.343 81.7559 139.799C81.5827 140.245 81.4642 140.77 81.4004 141.371H88.2363ZM105.668 147.646C105.376 148.011 105.062 148.362 104.725 148.699C104.396 149.027 104.023 149.319 103.604 149.574C103.184 149.82 102.71 150.016 102.182 150.162C101.662 150.317 101.07 150.395 100.404 150.395C99.5111 150.395 98.6771 150.212 97.9023 149.848C97.1276 149.483 96.4531 148.968 95.8789 148.303C95.3138 147.637 94.8672 146.835 94.5391 145.896C94.2109 144.958 94.0469 143.914 94.0469 142.766C94.0469 141.553 94.2109 140.469 94.5391 139.512C94.8763 138.555 95.3366 137.748 95.9199 137.092C96.5033 136.436 97.1868 135.934 97.9707 135.588C98.7546 135.242 99.5931 135.068 100.486 135.068C101.571 135.068 102.537 135.283 103.385 135.711C104.242 136.13 105.012 136.75 105.695 137.57L103.986 139.607C103.64 139.261 103.344 138.992 103.098 138.801C102.852 138.6 102.578 138.423 102.277 138.268C101.986 138.113 101.685 137.999 101.375 137.926C101.074 137.853 100.751 137.816 100.404 137.816C99.8848 137.816 99.4108 137.93 98.9824 138.158C98.5632 138.386 98.2031 138.71 97.9023 139.129C97.6016 139.548 97.3691 140.059 97.2051 140.66C97.041 141.262 96.959 141.936 96.959 142.684C96.959 143.404 97.0365 144.069 97.1914 144.68C97.3464 145.281 97.5697 145.805 97.8613 146.252C98.1621 146.689 98.5312 147.031 98.9688 147.277C99.4062 147.523 99.9121 147.646 100.486 147.646C100.833 147.646 101.147 147.61 101.43 147.537C101.712 147.455 101.981 147.341 102.236 147.195C102.501 147.04 102.756 146.849 103.002 146.621C103.257 146.393 103.531 146.129 103.822 145.828L105.668 147.646ZM120.816 142.438C120.816 142.702 120.807 142.948 120.789 143.176C120.771 143.404 120.753 143.595 120.734 143.75H111.014C111.096 144.461 111.251 145.072 111.479 145.582C111.706 146.083 111.984 146.498 112.312 146.826C112.641 147.154 113.01 147.396 113.42 147.551C113.839 147.706 114.272 147.783 114.719 147.783C115.038 147.783 115.339 147.756 115.621 147.701C115.904 147.646 116.173 147.564 116.428 147.455C116.692 147.346 116.924 147.236 117.125 147.127C117.326 147.008 117.585 146.835 117.904 146.607L119.613 148.453C119.249 148.799 118.898 149.082 118.561 149.301C118.232 149.51 117.872 149.702 117.48 149.875C117.098 150.039 116.66 150.167 116.168 150.258C115.676 150.349 115.133 150.395 114.541 150.395C113.903 150.395 113.306 150.303 112.75 150.121C112.194 149.948 111.702 149.72 111.273 149.438C110.845 149.146 110.458 148.818 110.111 148.453C109.774 148.079 109.451 147.605 109.141 147.031C108.831 146.448 108.594 145.801 108.43 145.09C108.266 144.37 108.184 143.586 108.184 142.738C108.184 141.499 108.339 140.4 108.648 139.443C108.967 138.486 109.41 137.684 109.975 137.037C110.54 136.39 111.219 135.902 112.012 135.574C112.805 135.237 113.675 135.068 114.623 135.068C115.671 135.068 116.583 135.269 117.357 135.67C118.132 136.062 118.775 136.595 119.285 137.27C119.796 137.935 120.178 138.714 120.434 139.607C120.689 140.501 120.816 141.444 120.816 142.438ZM117.904 141.371C117.868 140.87 117.777 140.396 117.631 139.949C117.494 139.503 117.285 139.111 117.002 138.773C116.729 138.436 116.378 138.172 115.949 137.98C115.53 137.78 115.024 137.68 114.432 137.68C113.921 137.68 113.475 137.766 113.092 137.939C112.709 138.104 112.381 138.34 112.107 138.65C111.834 138.96 111.606 139.343 111.424 139.799C111.251 140.245 111.132 140.77 111.068 141.371H117.904ZM133.354 150.08V141.768C133.354 140.437 133.117 139.434 132.643 138.76C132.169 138.076 131.398 137.734 130.332 137.734C129.867 137.734 129.439 137.816 129.047 137.98C128.655 138.145 128.327 138.4 128.062 138.746C127.798 139.092 127.607 139.503 127.488 139.977C127.37 140.441 127.311 140.943 127.311 141.48V150.08H124.426V135.383H127.311V136.777C127.493 136.513 127.716 136.276 127.98 136.066C128.245 135.848 128.536 135.665 128.855 135.52C129.174 135.374 129.516 135.264 129.881 135.191C130.245 135.109 130.619 135.068 131.002 135.068C131.886 135.068 132.652 135.214 133.299 135.506C133.955 135.788 134.497 136.199 134.926 136.736C135.363 137.274 135.691 137.953 135.91 138.773C136.129 139.594 136.238 140.555 136.238 141.658V150.08H133.354ZM147.285 149.711C146.93 149.911 146.51 150.076 146.027 150.203C145.553 150.331 145.029 150.395 144.455 150.395C143.954 150.395 143.512 150.322 143.129 150.176C142.755 150.039 142.413 149.82 142.104 149.52C141.794 149.21 141.557 148.809 141.393 148.316C141.229 147.815 141.146 147.209 141.146 146.498V138.008H139.055V135.383H141.146V131.186L143.977 129.668V135.383H147.613V138.008H143.977V145.992C143.977 146.339 144.004 146.626 144.059 146.854C144.122 147.072 144.214 147.25 144.332 147.387C144.46 147.523 144.619 147.619 144.811 147.674C145.002 147.729 145.23 147.756 145.494 147.756C145.868 147.756 146.246 147.697 146.629 147.578C147.021 147.46 147.349 147.323 147.613 147.168L147.285 149.711ZM166.959 133.359V150.08H164.02V133.359H158.305V130.475H172.674V133.359H166.959ZM181.287 138.432C180.977 138.258 180.649 138.126 180.303 138.035C179.965 137.944 179.56 137.898 179.086 137.898C178.165 137.898 177.454 138.217 176.953 138.855C176.452 139.484 176.201 140.428 176.201 141.686V150.08H173.316V135.383H176.201V136.777C176.365 136.531 176.566 136.308 176.803 136.107C177.04 135.898 177.299 135.715 177.582 135.561C177.874 135.406 178.184 135.287 178.512 135.205C178.84 135.114 179.186 135.068 179.551 135.068C180.143 135.068 180.635 135.123 181.027 135.232C181.419 135.342 181.761 135.492 182.053 135.684L181.287 138.432ZM196.23 142.438C196.23 142.702 196.221 142.948 196.203 143.176C196.185 143.404 196.167 143.595 196.148 143.75H186.428C186.51 144.461 186.665 145.072 186.893 145.582C187.12 146.083 187.398 146.498 187.727 146.826C188.055 147.154 188.424 147.396 188.834 147.551C189.253 147.706 189.686 147.783 190.133 147.783C190.452 147.783 190.753 147.756 191.035 147.701C191.318 147.646 191.587 147.564 191.842 147.455C192.106 147.346 192.339 147.236 192.539 147.127C192.74 147.008 192.999 146.835 193.318 146.607L195.027 148.453C194.663 148.799 194.312 149.082 193.975 149.301C193.646 149.51 193.286 149.702 192.895 149.875C192.512 150.039 192.074 150.167 191.582 150.258C191.09 150.349 190.548 150.395 189.955 150.395C189.317 150.395 188.72 150.303 188.164 150.121C187.608 149.948 187.116 149.72 186.688 149.438C186.259 149.146 185.872 148.818 185.525 148.453C185.188 148.079 184.865 147.605 184.555 147.031C184.245 146.448 184.008 145.801 183.844 145.09C183.68 144.37 183.598 143.586 183.598 142.738C183.598 141.499 183.753 140.4 184.062 139.443C184.382 138.486 184.824 137.684 185.389 137.037C185.954 136.39 186.633 135.902 187.426 135.574C188.219 135.237 189.089 135.068 190.037 135.068C191.085 135.068 191.997 135.269 192.771 135.67C193.546 136.062 194.189 136.595 194.699 137.27C195.21 137.935 195.592 138.714 195.848 139.607C196.103 140.501 196.23 141.444 196.23 142.438ZM193.318 141.371C193.282 140.87 193.191 140.396 193.045 139.949C192.908 139.503 192.699 139.111 192.416 138.773C192.143 138.436 191.792 138.172 191.363 137.98C190.944 137.78 190.438 137.68 189.846 137.68C189.335 137.68 188.889 137.766 188.506 137.939C188.123 138.104 187.795 138.34 187.521 138.65C187.248 138.96 187.02 139.343 186.838 139.799C186.665 140.245 186.546 140.77 186.482 141.371H193.318ZM208.768 150.08V141.768C208.768 140.437 208.531 139.434 208.057 138.76C207.583 138.076 206.812 137.734 205.746 137.734C205.281 137.734 204.853 137.816 204.461 137.98C204.069 138.145 203.741 138.4 203.477 138.746C203.212 139.092 203.021 139.503 202.902 139.977C202.784 140.441 202.725 140.943 202.725 141.48V150.08H199.84V135.383H202.725V136.777C202.907 136.513 203.13 136.276 203.395 136.066C203.659 135.848 203.951 135.665 204.27 135.52C204.589 135.374 204.93 135.264 205.295 135.191C205.66 135.109 206.033 135.068 206.416 135.068C207.3 135.068 208.066 135.214 208.713 135.506C209.369 135.788 209.911 136.199 210.34 136.736C210.777 137.274 211.105 137.953 211.324 138.773C211.543 139.594 211.652 140.555 211.652 141.658V150.08H208.768ZM224.654 150.08V148.686C224.381 148.932 224.098 149.16 223.807 149.369C223.515 149.579 223.201 149.766 222.863 149.93C222.526 150.094 222.189 150.212 221.852 150.285C221.514 150.358 221.168 150.395 220.812 150.395C220.02 150.395 219.281 150.249 218.598 149.957C217.914 149.656 217.317 149.187 216.807 148.549C216.296 147.911 215.895 147.095 215.604 146.102C215.312 145.099 215.166 143.896 215.166 142.492C215.166 141.234 215.321 140.141 215.631 139.211C215.95 138.272 216.374 137.497 216.902 136.887C217.44 136.276 218.055 135.82 218.748 135.52C219.45 135.219 220.184 135.068 220.949 135.068C221.323 135.068 221.688 135.114 222.043 135.205C222.398 135.296 222.736 135.419 223.055 135.574C223.374 135.729 223.665 135.911 223.93 136.121C224.203 136.322 224.445 136.531 224.654 136.75V131.158L227.512 129.668V150.08H224.654ZM224.682 139.662C224.518 139.443 224.312 139.22 224.066 138.992C223.829 138.764 223.561 138.559 223.26 138.377C222.959 138.186 222.635 138.031 222.289 137.912C221.952 137.794 221.601 137.734 221.236 137.734C220.188 137.734 219.391 138.126 218.844 138.91C218.306 139.685 218.037 140.852 218.037 142.41C218.037 143.331 218.11 144.128 218.256 144.803C218.402 145.468 218.616 146.02 218.898 146.457C219.181 146.885 219.527 147.204 219.938 147.414C220.348 147.624 220.817 147.729 221.346 147.729C221.692 147.729 222.025 147.678 222.344 147.578C222.663 147.469 222.964 147.327 223.246 147.154C223.529 146.972 223.788 146.771 224.025 146.553C224.271 146.325 224.49 146.092 224.682 145.855V139.662Z" fill="white"/>
<path d="M97.4171 184.372C94.5367 187.388 92.0726 190.403 90.0249 193.418C87.9996 196.411 86.3344 199.539 85.0292 202.802C83.7466 206.065 82.8014 209.519 82.1939 213.165C81.5863 216.81 81.2712 220.782 81.2487 225.08H71.5612C71.6287 220.962 71.9775 217.08 72.6076 213.435C73.2602 209.767 74.1941 206.29 75.4092 203.005C76.6244 199.697 78.1208 196.558 79.8986 193.587C81.6763 190.617 83.7353 187.77 86.0756 185.047H61.6037V176.676H97.4171V184.372ZM140.42 208.574C140.42 211.41 139.981 213.907 139.104 216.068C138.249 218.205 137.011 220.006 135.391 221.468C133.771 222.909 131.802 224 129.484 224.743C127.166 225.485 124.544 225.856 121.619 225.856C118.176 225.856 115.071 225.305 112.303 224.202C109.557 223.1 107.015 221.592 104.674 219.679L109.67 212.929C111.538 214.391 113.507 215.539 115.577 216.371C117.647 217.204 119.774 217.62 121.956 217.62C123.599 217.62 124.994 217.418 126.142 217.013C127.29 216.608 128.201 216.045 128.876 215.325C129.551 214.605 130.08 213.727 130.463 212.692C130.845 211.635 131.036 210.374 131.036 208.912C131.036 206.301 130.373 204.31 129.045 202.937C127.717 201.565 125.748 200.878 123.138 200.878C122.193 200.878 121.326 200.957 120.539 201.114C119.774 201.25 119.054 201.452 118.379 201.722C117.726 201.97 117.107 202.285 116.522 202.667C115.959 203.027 115.397 203.444 114.834 203.916L106.429 201.216L107.948 176.676H137.855V184.912H115.881L115.206 195.342C116.488 194.577 117.895 193.992 119.425 193.587C120.978 193.16 122.767 192.946 124.792 192.946C127.29 192.946 129.506 193.295 131.441 193.992C133.377 194.667 135.008 195.669 136.336 196.996C137.664 198.324 138.676 199.967 139.374 201.925C140.071 203.86 140.42 206.076 140.42 208.574ZM162.225 189.199C162.225 193.34 161.472 196.614 159.964 199.022C158.479 201.407 156.487 202.6 153.989 202.6C151.537 202.6 149.556 201.452 148.049 199.157C146.563 196.839 145.821 193.565 145.821 189.334C145.821 185.104 146.586 181.818 148.116 179.478C149.669 177.115 151.672 175.934 154.124 175.934C156.6 175.934 158.569 177.093 160.031 179.41C161.494 181.706 162.225 184.969 162.225 189.199ZM156.42 189.334C156.42 186.521 156.206 184.462 155.778 183.157C155.373 181.852 154.777 181.199 153.989 181.199C153.134 181.199 152.527 181.852 152.167 183.157C151.807 184.44 151.627 186.454 151.627 189.199C151.627 192.035 151.84 194.105 152.268 195.41C152.695 196.715 153.314 197.368 154.124 197.368C154.957 197.368 155.542 196.715 155.88 195.41C156.24 194.105 156.42 192.08 156.42 189.334ZM156.251 225.08H150.681L174.782 176.676H180.385L156.251 225.08ZM185.246 212.422C185.246 216.563 184.492 219.837 182.984 222.245C181.499 224.63 179.508 225.823 177.01 225.823C174.557 225.823 172.577 224.675 171.069 222.38C169.584 220.062 168.841 216.788 168.841 212.557C168.841 208.327 169.606 205.041 171.137 202.701C172.689 200.338 174.692 199.157 177.145 199.157C179.62 199.157 181.589 200.316 183.052 202.633C184.515 204.929 185.246 208.192 185.246 212.422ZM179.44 212.557C179.44 209.744 179.226 207.685 178.799 206.38C178.394 205.075 177.797 204.422 177.01 204.422C176.155 204.422 175.547 205.075 175.187 206.38C174.827 207.663 174.647 209.677 174.647 212.422C174.647 215.258 174.861 217.328 175.288 218.633C175.716 219.938 176.335 220.591 177.145 220.591C177.977 220.591 178.563 219.938 178.9 218.633C179.26 217.328 179.44 215.303 179.44 212.557Z" fill="white"/>
<path d="M75.0312 270.213C74.7656 269.704 74.5111 269.322 74.2676 269.067C74.0241 268.813 73.7253 268.575 73.3711 268.354C73.0169 268.121 72.624 267.944 72.1924 267.822C71.7607 267.701 71.2516 267.64 70.665 267.64C69.7686 267.64 68.9717 267.828 68.2744 268.204C67.5882 268.569 67.0016 269.084 66.5146 269.748C66.0387 270.412 65.6735 271.209 65.4189 272.139C65.1755 273.057 65.0537 274.07 65.0537 275.177C65.0537 276.25 65.181 277.246 65.4355 278.165C65.6901 279.084 66.0553 279.881 66.5312 280.556C67.0182 281.231 67.6104 281.762 68.3076 282.149C69.0049 282.537 69.8018 282.73 70.6982 282.73C71.6722 282.73 72.5133 282.52 73.2217 282.1C73.9411 281.679 74.6549 280.882 75.3633 279.709L79.3809 282.083C78.9714 282.924 78.4844 283.677 77.9199 284.341C77.3555 285.005 76.708 285.569 75.9775 286.034C75.2471 286.499 74.4281 286.853 73.5205 287.097C72.624 287.34 71.639 287.462 70.5654 287.462C69.4808 287.462 68.4902 287.335 67.5938 287.08C66.7083 286.814 65.8727 286.433 65.0869 285.935C64.3011 285.437 63.6038 284.828 62.9951 284.108C62.3864 283.389 61.8994 282.642 61.5342 281.867C61.1689 281.092 60.848 280.146 60.5713 279.028C60.3057 277.899 60.1729 276.616 60.1729 275.177C60.1729 273.373 60.4329 271.718 60.9531 270.213C61.4733 268.708 62.1982 267.413 63.1279 266.328C64.0576 265.243 65.1699 264.402 66.4648 263.805C67.7598 263.207 69.182 262.908 70.7314 262.908C72.7347 262.908 74.4723 263.345 75.9443 264.22C77.4163 265.083 78.584 266.4 79.4473 268.171L75.0312 270.213ZM93.6914 287.08V285.885C93.2819 286.316 92.7174 286.687 91.998 286.997C91.2786 287.307 90.4486 287.462 89.5078 287.462C87.3607 287.462 85.7227 286.77 84.5938 285.387C83.4759 284.003 82.917 281.972 82.917 279.294V269.233H87.6152V278.879C87.6152 280.318 87.8421 281.369 88.2959 282.033C88.7497 282.697 89.5299 283.029 90.6367 283.029C91.7546 283.029 92.5404 282.692 92.9941 282.017C93.459 281.33 93.6914 280.323 93.6914 278.995V269.233H98.3896V287.08H93.6914ZM113.381 274.712C113.005 274.369 112.59 274.092 112.136 273.882C111.682 273.66 111.189 273.55 110.658 273.55C109.551 273.55 108.771 273.871 108.317 274.513C107.864 275.144 107.637 276.112 107.637 277.418V287.08H102.938V269.233H107.637V270.412C107.825 270.213 108.046 270.019 108.301 269.831C108.566 269.643 108.854 269.471 109.164 269.316C109.485 269.15 109.828 269.034 110.193 268.968C110.559 268.89 110.929 268.852 111.306 268.852C112.069 268.852 112.733 268.984 113.298 269.25C113.862 269.505 114.299 269.792 114.609 270.113L113.381 274.712ZM127.957 274.712C127.581 274.369 127.166 274.092 126.712 273.882C126.258 273.66 125.766 273.55 125.234 273.55C124.128 273.55 123.347 273.871 122.894 274.513C122.44 275.144 122.213 276.112 122.213 277.418V287.08H117.515V269.233H122.213V270.412C122.401 270.213 122.622 270.019 122.877 269.831C123.143 269.643 123.43 269.471 123.74 269.316C124.061 269.15 124.404 269.034 124.77 268.968C125.135 268.89 125.506 268.852 125.882 268.852C126.646 268.852 127.31 268.984 127.874 269.25C128.438 269.505 128.876 269.792 129.186 270.113L127.957 274.712ZM146.119 278.165C146.119 278.508 146.114 278.801 146.103 279.045C146.091 279.288 146.075 279.499 146.053 279.676H135.378C135.422 280.285 135.555 280.805 135.776 281.236C136.009 281.657 136.291 282 136.623 282.266C136.966 282.531 137.348 282.725 137.769 282.847C138.189 282.968 138.615 283.029 139.047 283.029C139.368 283.029 139.667 283.007 139.943 282.963C140.22 282.908 140.497 282.825 140.773 282.714C141.061 282.592 141.31 282.454 141.521 282.299C141.742 282.144 141.936 281.972 142.102 281.784L145.438 284.557C145.084 285.021 144.664 285.437 144.177 285.802C143.69 286.156 143.164 286.46 142.6 286.715C142.035 286.958 141.449 287.141 140.84 287.263C140.242 287.396 139.645 287.462 139.047 287.462C138.062 287.462 137.176 287.34 136.391 287.097C135.616 286.864 134.935 286.549 134.349 286.15C133.762 285.752 133.242 285.293 132.788 284.772C132.334 284.241 131.952 283.655 131.643 283.013C131.333 282.36 131.089 281.635 130.912 280.838C130.735 280.03 130.646 279.139 130.646 278.165C130.646 276.804 130.846 275.553 131.244 274.413C131.654 273.262 132.213 272.277 132.921 271.458C133.64 270.639 134.481 270.003 135.444 269.549C136.418 269.084 137.47 268.852 138.599 268.852C139.794 268.852 140.856 269.101 141.786 269.599C142.716 270.086 143.502 270.755 144.144 271.607C144.785 272.449 145.272 273.434 145.604 274.562C145.948 275.691 146.119 276.892 146.119 278.165ZM141.554 276.14C141.521 275.741 141.432 275.348 141.288 274.961C141.155 274.574 140.956 274.23 140.69 273.932C140.436 273.633 140.115 273.395 139.728 273.218C139.351 273.03 138.897 272.936 138.366 272.936C137.935 272.936 137.547 273.019 137.204 273.185C136.872 273.351 136.579 273.577 136.324 273.865C136.081 274.153 135.882 274.491 135.727 274.878C135.583 275.265 135.489 275.686 135.444 276.14H141.554ZM160.629 287.08V277.418C160.629 276.012 160.402 274.972 159.948 274.297C159.506 273.622 158.725 273.284 157.607 273.284C157.12 273.284 156.689 273.351 156.312 273.483C155.936 273.616 155.615 273.838 155.35 274.147C155.095 274.457 154.896 274.872 154.752 275.393C154.619 275.902 154.553 276.544 154.553 277.318V287.08H149.854V269.233H154.553V270.412C154.752 270.213 154.99 270.019 155.267 269.831C155.554 269.643 155.886 269.471 156.263 269.316C156.639 269.15 157.032 269.034 157.441 268.968C157.862 268.89 158.294 268.852 158.736 268.852C159.876 268.852 160.856 269.045 161.675 269.433C162.505 269.809 163.191 270.351 163.733 271.06C164.276 271.757 164.674 272.609 164.929 273.616C165.194 274.623 165.327 275.758 165.327 277.02V287.08H160.629ZM179.505 286.366C179.118 286.676 178.597 286.936 177.944 287.146C177.291 287.357 176.6 287.462 175.869 287.462C175.15 287.462 174.497 287.329 173.91 287.063C173.324 286.798 172.82 286.427 172.399 285.951C171.99 285.464 171.669 284.894 171.437 284.241C171.215 283.588 171.104 282.869 171.104 282.083V273.649H168.116V269.233H171.104V264.635L175.803 262.294V269.233H180.086V273.649H175.803V280.821C175.803 281.253 175.841 281.607 175.919 281.884C175.996 282.16 176.107 282.382 176.251 282.548C176.395 282.703 176.572 282.813 176.782 282.88C177.004 282.935 177.253 282.963 177.529 282.963C177.95 282.963 178.359 282.858 178.758 282.647C179.167 282.437 179.643 282.089 180.186 281.602L179.505 286.366Z" fill="#A3ABB3"/>
<path d="M203.272 277.02V283.926H199.803V277.02H193.212V273.749H199.803V266.843H203.272V273.749H209.88V277.02H203.272ZM231.097 279.095C231.097 280.511 230.881 281.745 230.449 282.797C230.018 283.837 229.403 284.706 228.606 285.403C227.821 286.09 226.869 286.604 225.751 286.947C224.633 287.29 223.388 287.462 222.016 287.462C220.444 287.462 219.011 287.235 217.716 286.781C216.421 286.316 215.226 285.691 214.13 284.905L215.956 282.249C216.853 282.88 217.832 283.383 218.895 283.76C219.968 284.136 221.075 284.324 222.215 284.324C223.122 284.324 223.914 284.202 224.589 283.959C225.264 283.715 225.823 283.372 226.266 282.93C226.708 282.487 227.04 281.956 227.262 281.336C227.483 280.705 227.594 280.002 227.594 279.228C227.594 277.789 227.184 276.676 226.365 275.891C225.557 275.105 224.345 274.712 222.729 274.712C222.209 274.712 221.733 274.745 221.302 274.812C220.881 274.878 220.483 274.978 220.106 275.11C219.741 275.243 219.398 275.404 219.077 275.592C218.756 275.769 218.446 275.974 218.147 276.206L214.844 275.077L215.624 263.273H229.735V266.478H218.646L218.181 273.002C218.756 272.626 219.448 272.305 220.256 272.039C221.075 271.773 222.049 271.641 223.178 271.641C224.473 271.641 225.613 271.812 226.598 272.155C227.594 272.498 228.424 272.996 229.088 273.649C229.752 274.291 230.25 275.072 230.582 275.99C230.925 276.909 231.097 277.944 231.097 279.095ZM241.871 269.499C241.871 271.513 241.534 273.107 240.858 274.28C240.183 275.442 239.265 276.023 238.103 276.023C236.963 276.023 236.061 275.476 235.396 274.38C234.732 273.284 234.4 271.657 234.4 269.499C234.4 267.319 234.749 265.675 235.446 264.568C236.155 263.462 237.04 262.908 238.103 262.908C239.342 262.908 240.277 263.489 240.908 264.651C241.55 265.813 241.871 267.429 241.871 269.499ZM239.497 269.499C239.497 268.06 239.381 266.97 239.148 266.229C238.916 265.487 238.567 265.116 238.103 265.116C237.627 265.116 237.278 265.476 237.057 266.195C236.846 266.915 236.741 267.994 236.741 269.433C236.741 270.871 236.857 271.962 237.09 272.703C237.333 273.445 237.693 273.815 238.169 273.815C238.623 273.815 238.955 273.45 239.165 272.72C239.386 271.978 239.497 270.905 239.497 269.499ZM239.148 287.08H236.808L248.263 263.273H250.62L239.148 287.08ZM253.027 280.854C253.027 282.946 252.69 284.568 252.015 285.719C251.34 286.87 250.432 287.451 249.292 287.462C248.097 287.451 247.173 286.87 246.52 285.719C245.867 284.568 245.54 282.968 245.54 280.921C245.54 278.796 245.889 277.169 246.586 276.04C247.294 274.9 248.196 274.33 249.292 274.33C250.476 274.33 251.395 274.889 252.048 276.007C252.701 277.114 253.027 278.729 253.027 280.854ZM250.687 280.921C250.687 279.427 250.565 278.326 250.321 277.617C250.078 276.898 249.729 276.538 249.275 276.538C248.799 276.538 248.456 276.898 248.246 277.617C248.036 278.337 247.931 279.416 247.931 280.854C247.931 282.293 248.047 283.383 248.279 284.125C248.512 284.867 248.866 285.237 249.342 285.237C249.818 285.237 250.161 284.872 250.371 284.142C250.581 283.4 250.687 282.326 250.687 280.921Z" fill="#0AD95C"/>
<path fill-rule="evenodd" clip-rule="evenodd" d="M104.781 624.178C171.7 624.178 171.7 316.362 238.618 316.362C305.537 316.362 305.537 386.321 372.456 386.321C439.374 386.321 439.374 568.212 506.292 568.212C573.212 568.212 573.212 358.337 640.131 358.337C707.05 358.337 707.05 596.195 773.965 596.195C840.884 596.195 840.884 456.279 907.804 456.279C974.723 456.279 974.723 400.312 1041.64 400.312C1108.56 400.312 1108.56 666.153 1175.48 666.153C1242.4 666.153 1242.4 764.095 1309.31 764.095C1376.23 764.095 1376.23 246.404 1443.15 246.404C1510.07 246.404 1510.07 526.237 1576.99 526.237C1643.91 526.237 1643.91 694.137 1710.83 694.137C1777.75 694.137 1777.74 330.354 1844.66 330.354V764.095H1309.31H104.781V624.178Z" fill="url(#paint1_linear_2609_8513)"/>
<path fill-rule="evenodd" clip-rule="evenodd" d="M104.781 624.178C171.7 624.178 171.7 316.362 238.618 316.362C305.537 316.362 305.537 386.321 372.456 386.321C439.374 386.321 439.374 568.212 506.292 568.212C573.212 568.212 573.212 358.337 640.131 358.337C707.05 358.337 707.05 596.195 773.965 596.195C840.884 596.195 840.884 456.279 907.804 456.279C974.723 456.279 974.723 400.312 1041.64 400.312C1108.56 400.312 1108.56 666.153 1175.48 666.153C1242.4 666.153 1242.4 764.095 1309.31 764.095C1376.23 764.095 1376.23 246.404 1443.15 246.404C1510.07 246.404 1510.07 526.237 1576.99 526.237C1643.91 526.237 1643.91 694.137 1710.83 694.137C1777.75 694.137 1777.74 330.354 1844.66 330.354V764.095H1309.31H104.781V624.178Z" fill="url(#paint2_linear_2609_8513)"/>
<path d="M123.916 640.96C123.916 643.73 123.276 645.842 121.997 647.295C120.717 648.749 118.875 649.476 116.47 649.476C115.492 649.476 114.596 649.334 113.783 649.05C112.969 648.767 112.242 648.369 111.602 647.857C110.972 647.346 110.432 646.733 109.984 646.02C109.545 645.307 109.203 644.521 108.956 643.661L112.795 642.619C113.015 643.195 113.22 643.643 113.412 643.963C113.614 644.274 113.86 644.557 114.153 644.813C114.455 645.069 114.793 645.261 115.168 645.389C115.542 645.508 115.977 645.567 116.47 645.567C117.092 645.567 117.622 645.471 118.061 645.279C118.509 645.078 118.875 644.781 119.158 644.388C119.441 643.995 119.647 643.524 119.775 642.976C119.912 642.427 119.981 641.792 119.981 641.07V629.496H123.916V640.96ZM136.093 649.16V648.173C135.92 648.356 135.723 648.525 135.504 648.68C135.284 648.826 135.019 648.968 134.708 649.105C134.397 649.233 134.082 649.325 133.762 649.38C133.442 649.444 133.113 649.476 132.775 649.476C132.089 649.476 131.417 649.37 130.759 649.16C130.101 648.941 129.511 648.616 128.99 648.187C128.478 647.757 128.062 647.213 127.742 646.555C127.431 645.897 127.276 645.119 127.276 644.224C127.276 643.41 127.431 642.697 127.742 642.084C128.053 641.472 128.478 640.965 129.018 640.562C129.557 640.151 130.188 639.845 130.91 639.644C131.641 639.433 132.423 639.328 133.255 639.328C133.94 639.328 134.507 639.388 134.955 639.506C135.403 639.625 135.782 639.762 136.093 639.918V639.191C136.093 638.643 135.91 638.195 135.545 637.847C135.179 637.491 134.658 637.312 133.982 637.312C133.122 637.312 132.423 637.376 131.883 637.504C131.344 637.623 130.7 637.884 129.95 638.286L128.455 635.598C129.388 635.05 130.27 634.666 131.102 634.446C131.943 634.218 132.903 634.104 133.982 634.104C134.877 634.104 135.691 634.218 136.422 634.446C137.163 634.675 137.794 635.009 138.315 635.447C138.845 635.886 139.252 636.426 139.535 637.066C139.828 637.705 139.974 638.441 139.974 639.273V649.16H136.093ZM136.093 642.976C135.929 642.875 135.76 642.788 135.586 642.715C135.412 642.633 135.22 642.569 135.01 642.523C134.8 642.468 134.562 642.427 134.297 642.4C134.041 642.372 133.739 642.359 133.392 642.359C132.661 642.359 132.103 642.523 131.719 642.852C131.344 643.172 131.157 643.629 131.157 644.224C131.157 644.48 131.193 644.726 131.266 644.964C131.349 645.202 131.477 645.412 131.65 645.595C131.833 645.769 132.066 645.91 132.35 646.02C132.633 646.13 132.98 646.184 133.392 646.184C133.712 646.184 134.009 646.148 134.283 646.075C134.567 646.002 134.823 645.906 135.051 645.787C135.289 645.659 135.494 645.513 135.668 645.348C135.842 645.183 135.984 645.014 136.093 644.841V642.976ZM152.507 649.16V641.179C152.507 640.018 152.32 639.159 151.945 638.601C151.579 638.044 150.935 637.765 150.012 637.765C149.609 637.765 149.253 637.82 148.942 637.929C148.631 638.039 148.366 638.222 148.147 638.478C147.936 638.734 147.772 639.077 147.653 639.506C147.543 639.927 147.489 640.457 147.489 641.097V649.16H143.608V634.419H147.489V635.393C147.653 635.228 147.85 635.068 148.078 634.913C148.316 634.757 148.59 634.616 148.901 634.488C149.212 634.35 149.536 634.254 149.875 634.2C150.222 634.136 150.578 634.104 150.944 634.104C151.886 634.104 152.695 634.264 153.371 634.584C154.057 634.894 154.624 635.342 155.072 635.927C155.52 636.503 155.849 637.207 156.059 638.039C156.278 638.871 156.388 639.808 156.388 640.85V649.16H152.507Z" fill="#A3ABB3"/>
<path d="M274.552 633.349V637.052H280.476V640.878H274.552V649.16H270.617V629.496H284.686V633.349H274.552ZM297.028 641.796C297.028 642.08 297.023 642.322 297.014 642.523C297.005 642.724 296.991 642.898 296.973 643.044H288.155C288.192 643.547 288.302 643.977 288.485 644.333C288.677 644.681 288.91 644.964 289.184 645.183C289.467 645.403 289.783 645.563 290.13 645.663C290.477 645.764 290.829 645.814 291.186 645.814C291.451 645.814 291.698 645.796 291.926 645.759C292.155 645.714 292.384 645.645 292.612 645.554C292.85 645.453 293.055 645.339 293.229 645.211C293.412 645.083 293.572 644.941 293.709 644.786L296.465 647.076C296.173 647.46 295.825 647.803 295.423 648.104C295.021 648.397 294.587 648.648 294.12 648.858C293.654 649.06 293.17 649.21 292.667 649.311C292.173 649.421 291.68 649.476 291.186 649.476C290.372 649.476 289.641 649.375 288.992 649.174C288.352 648.982 287.79 648.721 287.305 648.392C286.821 648.063 286.391 647.684 286.016 647.254C285.641 646.815 285.326 646.331 285.07 645.801C284.814 645.261 284.613 644.662 284.467 644.004C284.32 643.337 284.247 642.601 284.247 641.796C284.247 640.672 284.412 639.639 284.741 638.697C285.079 637.747 285.541 636.933 286.126 636.256C286.72 635.58 287.415 635.054 288.21 634.68C289.015 634.296 289.883 634.104 290.816 634.104C291.803 634.104 292.681 634.309 293.449 634.721C294.216 635.123 294.866 635.676 295.396 636.38C295.926 637.075 296.328 637.888 296.602 638.821C296.886 639.753 297.028 640.745 297.028 641.796ZM293.257 640.123C293.229 639.794 293.156 639.47 293.037 639.15C292.927 638.83 292.763 638.547 292.544 638.3C292.333 638.053 292.068 637.856 291.748 637.71C291.437 637.555 291.063 637.477 290.624 637.477C290.267 637.477 289.947 637.545 289.664 637.683C289.39 637.82 289.147 638.007 288.937 638.245C288.736 638.483 288.571 638.761 288.443 639.081C288.325 639.401 288.247 639.749 288.21 640.123H293.257ZM312.838 641.975C312.838 643.072 312.71 644.082 312.454 645.005C312.198 645.919 311.824 646.71 311.33 647.378C310.845 648.036 310.247 648.552 309.534 648.927C308.83 649.293 308.021 649.476 307.106 649.476C306.457 649.476 305.863 649.366 305.324 649.146C304.784 648.918 304.341 648.644 303.994 648.324V649.16H300.113V630.621L303.994 628.687V635.338C304.176 635.173 304.373 635.018 304.583 634.872C304.803 634.725 305.04 634.597 305.296 634.488C305.552 634.369 305.831 634.277 306.133 634.213C306.434 634.14 306.759 634.104 307.106 634.104C307.893 634.104 308.633 634.254 309.328 634.556C310.023 634.858 310.631 635.329 311.152 635.969C311.673 636.608 312.084 637.427 312.386 638.423C312.687 639.41 312.838 640.594 312.838 641.975ZM308.903 642.057C308.903 640.631 308.688 639.561 308.258 638.848C307.829 638.126 307.202 637.765 306.38 637.765C306.078 637.765 305.808 637.797 305.571 637.861C305.342 637.916 305.132 637.998 304.94 638.108C304.757 638.217 304.588 638.35 304.432 638.505C304.277 638.652 304.131 638.816 303.994 638.999V644.553C304.14 644.754 304.286 644.928 304.432 645.074C304.588 645.211 304.784 645.343 305.022 645.471C305.26 645.59 305.502 645.677 305.749 645.732C306.005 645.787 306.288 645.814 306.599 645.814C307.349 645.814 307.92 645.499 308.313 644.868C308.706 644.237 308.903 643.3 308.903 642.057Z" fill="#A3ABB3"/>
<path d="M444.058 649.16H440.123V637.971L434.816 649.613L429.509 637.971V649.16H425.656V629.496H429.454L434.898 641.385L440.178 629.496H444.058V649.16ZM456.578 649.16V648.173C456.404 648.356 456.208 648.525 455.988 648.68C455.769 648.826 455.504 648.968 455.193 649.105C454.882 649.233 454.567 649.325 454.247 649.38C453.927 649.444 453.598 649.476 453.26 649.476C452.574 649.476 451.902 649.37 451.244 649.16C450.586 648.941 449.996 648.616 449.475 648.187C448.963 647.757 448.547 647.213 448.227 646.555C447.916 645.897 447.761 645.119 447.761 644.224C447.761 643.41 447.916 642.697 448.227 642.084C448.538 641.472 448.963 640.965 449.502 640.562C450.042 640.151 450.672 639.845 451.395 639.644C452.126 639.433 452.908 639.328 453.74 639.328C454.425 639.328 454.992 639.388 455.44 639.506C455.888 639.625 456.267 639.762 456.578 639.918V639.191C456.578 638.643 456.395 638.195 456.03 637.847C455.664 637.491 455.143 637.312 454.466 637.312C453.607 637.312 452.908 637.376 452.368 637.504C451.829 637.623 451.184 637.884 450.435 638.286L448.94 635.598C449.873 635.05 450.755 634.666 451.587 634.446C452.428 634.218 453.388 634.104 454.466 634.104C455.362 634.104 456.176 634.218 456.907 634.446C457.648 634.675 458.278 635.009 458.8 635.447C459.33 635.886 459.737 636.426 460.02 637.066C460.313 637.705 460.459 638.441 460.459 639.273V649.16H456.578ZM456.578 642.976C456.414 642.875 456.244 642.788 456.071 642.715C455.897 642.633 455.705 642.569 455.495 642.523C455.285 642.468 455.047 642.427 454.782 642.4C454.526 642.372 454.224 642.359 453.877 642.359C453.145 642.359 452.588 642.523 452.204 642.852C451.829 643.172 451.642 643.629 451.642 644.224C451.642 644.48 451.678 644.726 451.751 644.964C451.834 645.202 451.961 645.412 452.135 645.595C452.318 645.769 452.551 645.91 452.835 646.02C453.118 646.13 453.465 646.184 453.877 646.184C454.197 646.184 454.494 646.148 454.768 646.075C455.051 646.002 455.307 645.906 455.536 645.787C455.774 645.659 455.979 645.513 456.153 645.348C456.327 645.183 456.468 645.014 456.578 644.841V642.976ZM472.718 638.944C472.407 638.661 472.064 638.432 471.69 638.259C471.315 638.076 470.908 637.984 470.469 637.984C469.555 637.984 468.91 638.249 468.536 638.78C468.161 639.301 467.973 640.101 467.973 641.179V649.16H464.093V634.419H467.973V635.393C468.129 635.228 468.312 635.068 468.522 634.913C468.741 634.757 468.979 634.616 469.235 634.488C469.5 634.35 469.783 634.254 470.085 634.2C470.387 634.136 470.693 634.104 471.004 634.104C471.635 634.104 472.183 634.213 472.649 634.433C473.116 634.643 473.477 634.881 473.733 635.146L472.718 638.944Z" fill="#A3ABB3"/>
<path d="M604.114 649.16H599.795L598.245 644.786H591.06L589.51 649.16H585.3L592.828 629.496H596.641L604.114 649.16ZM596.901 641.042L594.652 634.638L592.403 641.042H596.901ZM619.843 641.975C619.843 643.072 619.715 644.082 619.459 645.005C619.203 645.919 618.828 646.71 618.334 647.378C617.85 648.036 617.251 648.552 616.538 648.927C615.834 649.293 615.025 649.476 614.111 649.476C613.462 649.476 612.867 649.366 612.328 649.146C611.789 648.918 611.345 648.644 610.998 648.324V652.643L607.117 654.577V634.419H610.998V635.338C611.428 634.945 611.903 634.643 612.424 634.433C612.945 634.213 613.507 634.104 614.111 634.104C614.897 634.104 615.637 634.254 616.332 634.556C617.027 634.858 617.635 635.329 618.156 635.969C618.677 636.608 619.088 637.427 619.39 638.423C619.692 639.41 619.843 640.594 619.843 641.975ZM615.907 642.057C615.907 640.658 615.692 639.593 615.262 638.862C614.842 638.131 614.216 637.765 613.384 637.765C612.863 637.765 612.415 637.861 612.04 638.053C611.674 638.245 611.327 638.56 610.998 638.999V644.553C611.162 644.772 611.327 644.955 611.491 645.101C611.665 645.247 611.862 645.375 612.081 645.485C612.301 645.595 612.538 645.677 612.794 645.732C613.05 645.787 613.32 645.814 613.603 645.814C614.353 645.814 614.924 645.499 615.317 644.868C615.71 644.237 615.907 643.3 615.907 642.057ZM631.539 638.944C631.229 638.661 630.886 638.432 630.511 638.259C630.136 638.076 629.729 637.984 629.291 637.984C628.376 637.984 627.732 638.249 627.357 638.78C626.982 639.301 626.795 640.101 626.795 641.179V649.16H622.914V634.419H626.795V635.393C626.95 635.228 627.133 635.068 627.343 634.913C627.563 634.757 627.8 634.616 628.056 634.488C628.322 634.35 628.605 634.254 628.907 634.2C629.208 634.136 629.515 634.104 629.825 634.104C630.456 634.104 631.005 634.213 631.471 634.433C631.937 634.643 632.298 634.881 632.554 635.146L631.539 638.944Z" fill="#A3ABB3"/>
<path d="M763.144 649.16H759.209V637.971L753.902 649.613L748.595 637.971V649.16H744.742V629.496H748.54L753.984 641.385L759.264 629.496H763.144V649.16ZM775.664 649.16V648.173C775.49 648.356 775.294 648.525 775.074 648.68C774.855 648.826 774.59 648.968 774.279 649.105C773.968 649.233 773.653 649.325 773.333 649.38C773.013 649.444 772.684 649.476 772.346 649.476C771.66 649.476 770.988 649.37 770.33 649.16C769.672 648.941 769.082 648.616 768.561 648.187C768.049 647.757 767.633 647.213 767.313 646.555C767.002 645.897 766.847 645.119 766.847 644.224C766.847 643.41 767.002 642.697 767.313 642.084C767.624 641.472 768.049 640.965 768.588 640.562C769.128 640.151 769.758 639.845 770.481 639.644C771.212 639.433 771.994 639.328 772.826 639.328C773.511 639.328 774.078 639.388 774.526 639.506C774.974 639.625 775.353 639.762 775.664 639.918V639.191C775.664 638.643 775.481 638.195 775.116 637.847C774.75 637.491 774.229 637.312 773.552 637.312C772.693 637.312 771.994 637.376 771.454 637.504C770.915 637.623 770.27 637.884 769.521 638.286L768.026 635.598C768.959 635.05 769.841 634.666 770.673 634.446C771.514 634.218 772.474 634.104 773.552 634.104C774.448 634.104 775.262 634.218 775.993 634.446C776.734 634.675 777.364 635.009 777.886 635.447C778.416 635.886 778.823 636.426 779.106 637.066C779.398 637.705 779.545 638.441 779.545 639.273V649.16H775.664ZM775.664 642.976C775.499 642.875 775.33 642.788 775.157 642.715C774.983 642.633 774.791 642.569 774.581 642.523C774.37 642.468 774.133 642.427 773.868 642.4C773.612 642.372 773.31 642.359 772.963 642.359C772.231 642.359 771.674 642.523 771.29 642.852C770.915 643.172 770.727 643.629 770.727 644.224C770.727 644.48 770.764 644.726 770.837 644.964C770.919 645.202 771.047 645.412 771.221 645.595C771.404 645.769 771.637 645.91 771.92 646.02C772.204 646.13 772.551 646.184 772.963 646.184C773.283 646.184 773.58 646.148 773.854 646.075C774.137 646.002 774.393 645.906 774.622 645.787C774.86 645.659 775.065 645.513 775.239 645.348C775.413 645.183 775.554 645.014 775.664 644.841V642.976ZM788.952 654.357H785.14L787.1 649.16L781.369 634.419H785.633L789.007 644.347L792.38 634.419H796.535L788.952 654.357Z" fill="#A3ABB3"/>
<path d="M923.127 640.96C923.127 643.73 922.487 645.842 921.208 647.295C919.928 648.749 918.086 649.476 915.681 649.476C914.703 649.476 913.807 649.334 912.994 649.05C912.18 648.767 911.453 648.369 910.813 647.857C910.183 647.346 909.643 646.733 909.195 646.02C908.756 645.307 908.414 644.521 908.167 643.661L912.006 642.619C912.226 643.195 912.431 643.643 912.623 643.963C912.825 644.274 913.071 644.557 913.364 644.813C913.666 645.069 914.004 645.261 914.379 645.389C914.753 645.508 915.188 645.567 915.681 645.567C916.303 645.567 916.833 645.471 917.272 645.279C917.72 645.078 918.086 644.781 918.369 644.388C918.652 643.995 918.858 643.524 918.986 642.976C919.123 642.427 919.192 641.792 919.192 641.07V629.496H923.127V640.96ZM936.168 649.16V648.173C935.83 648.529 935.364 648.836 934.769 649.092C934.175 649.348 933.49 649.476 932.713 649.476C930.939 649.476 929.586 648.904 928.654 647.761C927.73 646.619 927.269 644.941 927.269 642.729V634.419H931.149V642.386C931.149 643.575 931.337 644.443 931.711 644.991C932.086 645.54 932.731 645.814 933.645 645.814C934.568 645.814 935.217 645.535 935.592 644.978C935.976 644.411 936.168 643.579 936.168 642.482V634.419H940.049V649.16H936.168ZM952.706 649.16V641.179C952.706 640.018 952.518 639.159 952.143 638.601C951.778 638.044 951.133 637.765 950.21 637.765C949.808 637.765 949.451 637.82 949.14 637.929C948.83 638.039 948.564 638.222 948.345 638.478C948.135 638.734 947.97 639.077 947.851 639.506C947.742 639.927 947.687 640.457 947.687 641.097V649.16H943.806V634.419H947.687V635.393C947.851 635.228 948.048 635.068 948.276 634.913C948.514 634.757 948.788 634.616 949.099 634.488C949.41 634.35 949.735 634.254 950.073 634.2C950.42 634.136 950.777 634.104 951.142 634.104C952.084 634.104 952.893 634.264 953.57 634.584C954.255 634.894 954.822 635.342 955.27 635.927C955.718 636.503 956.047 637.207 956.257 638.039C956.477 638.871 956.586 639.808 956.586 640.85V649.16H952.706Z" fill="#A3ABB3"/>
<path d="M1084.17 640.96C1084.17 643.73 1083.53 645.842 1082.25 647.295C1080.97 648.749 1079.13 649.476 1076.72 649.476C1075.75 649.476 1074.85 649.334 1074.04 649.05C1073.22 648.767 1072.5 648.369 1071.86 647.857C1071.23 647.346 1070.69 646.733 1070.24 646.02C1069.8 645.307 1069.46 644.521 1069.21 643.661L1073.05 642.619C1073.27 643.195 1073.47 643.643 1073.67 643.963C1073.87 644.274 1074.11 644.557 1074.41 644.813C1074.71 645.069 1075.05 645.261 1075.42 645.389C1075.8 645.508 1076.23 645.567 1076.72 645.567C1077.35 645.567 1077.88 645.471 1078.31 645.279C1078.76 645.078 1079.13 644.781 1079.41 644.388C1079.7 643.995 1079.9 643.524 1080.03 642.976C1080.17 642.427 1080.23 641.792 1080.23 641.07V629.496H1084.17V640.96ZM1097.21 649.16V648.173C1096.87 648.529 1096.41 648.836 1095.81 649.092C1095.22 649.348 1094.53 649.476 1093.76 649.476C1091.98 649.476 1090.63 648.904 1089.7 647.761C1088.77 646.619 1088.31 644.941 1088.31 642.729V634.419H1092.19V642.386C1092.19 643.575 1092.38 644.443 1092.75 644.991C1093.13 645.54 1093.77 645.814 1094.69 645.814C1095.61 645.814 1096.26 645.535 1096.64 644.978C1097.02 644.411 1097.21 643.579 1097.21 642.482V634.419H1101.09V649.16H1097.21ZM1104.99 649.16V630.621L1108.87 628.687V649.16H1104.99Z" fill="#A3ABB3"/>
<path d="M1240.29 649.16H1235.97L1234.42 644.786H1227.23L1225.68 649.16H1221.47L1229 629.496H1232.81L1240.29 649.16ZM1233.07 641.042L1230.82 634.638L1228.58 641.042H1233.07ZM1259.72 640.48C1259.72 641.906 1259.53 643.177 1259.17 644.292C1258.81 645.407 1258.29 646.349 1257.61 647.117C1256.92 647.885 1256.08 648.47 1255.1 648.872C1254.11 649.274 1252.99 649.476 1251.75 649.476C1250.56 649.476 1249.48 649.279 1248.5 648.886C1247.53 648.493 1246.69 647.917 1245.99 647.158C1245.3 646.399 1244.76 645.467 1244.37 644.361C1243.99 643.245 1243.8 641.97 1243.8 640.535V629.496H1247.73V640.48C1247.73 642.071 1248.09 643.328 1248.82 644.251C1249.54 645.165 1250.52 645.622 1251.75 645.622C1252.99 645.622 1253.98 645.165 1254.7 644.251C1255.43 643.337 1255.8 642.098 1255.8 640.535V629.496H1259.72V640.48ZM1275.97 646.884C1275.97 648.255 1275.81 649.416 1275.49 650.367C1275.18 651.327 1274.71 652.095 1274.1 652.671C1273.53 653.21 1272.83 653.649 1271.98 653.987C1271.13 654.325 1270.12 654.531 1268.92 654.604L1267.77 651.519C1268.63 651.446 1269.33 651.336 1269.89 651.19C1270.46 651.053 1270.89 650.874 1271.19 650.655C1271.47 650.454 1271.68 650.17 1271.84 649.805C1271.99 649.448 1272.08 648.954 1272.09 648.324V648.228C1271.9 648.392 1271.71 648.543 1271.5 648.68C1271.29 648.817 1271.06 648.954 1270.8 649.092C1270.54 649.22 1270.26 649.316 1269.96 649.38C1269.67 649.444 1269.34 649.476 1268.97 649.476C1268.19 649.476 1267.45 649.325 1266.75 649.023C1266.06 648.712 1265.45 648.237 1264.93 647.597C1264.41 646.957 1264 646.143 1263.69 645.156C1263.39 644.16 1263.24 642.976 1263.24 641.604C1263.24 640.507 1263.37 639.502 1263.62 638.588C1263.88 637.664 1264.25 636.874 1264.74 636.215C1265.22 635.548 1265.82 635.031 1266.53 634.666C1267.25 634.291 1268.06 634.104 1268.97 634.104C1269.28 634.104 1269.59 634.131 1269.89 634.186C1270.2 634.241 1270.5 634.332 1270.78 634.46C1271.08 634.579 1271.32 634.702 1271.52 634.83C1271.72 634.958 1271.91 635.1 1272.09 635.255V634.419H1275.97V646.884ZM1269.7 645.814C1270.23 645.814 1270.68 645.714 1271.06 645.513C1271.44 645.302 1271.78 644.991 1272.09 644.58V639.026C1271.94 638.825 1271.79 638.656 1271.63 638.519C1271.49 638.382 1271.3 638.254 1271.08 638.135C1270.87 638.016 1270.62 637.925 1270.36 637.861C1270.09 637.797 1269.8 637.765 1269.48 637.765C1268.73 637.765 1268.16 638.08 1267.77 638.711C1267.37 639.342 1267.18 640.279 1267.18 641.522C1267.18 642.994 1267.4 644.077 1267.83 644.772C1268.28 645.467 1268.9 645.814 1269.7 645.814Z" fill="#A3ABB3"/>
<path d="M1404.33 643.209C1404.33 644.141 1404.17 644.991 1403.87 645.759C1403.57 646.527 1403.11 647.19 1402.47 647.748C1401.84 648.296 1401.04 648.721 1400.07 649.023C1399.11 649.325 1397.95 649.476 1396.61 649.476C1395.78 649.476 1394.99 649.389 1394.23 649.215C1393.47 649.05 1392.77 648.817 1392.11 648.516C1391.45 648.205 1390.85 647.83 1390.31 647.391C1389.78 646.943 1389.33 646.445 1388.97 645.897L1391.81 643.373C1392.49 644.178 1393.26 644.754 1394.12 645.101C1394.98 645.449 1395.88 645.622 1396.82 645.622C1397.49 645.622 1398.03 645.577 1398.44 645.485C1398.85 645.385 1399.2 645.252 1399.47 645.087C1399.75 644.914 1399.96 644.713 1400.07 644.484C1400.19 644.256 1400.25 643.922 1400.25 643.483C1400.25 643.172 1400.2 642.898 1400.09 642.66C1399.98 642.414 1399.76 642.19 1399.44 641.988C1399.13 641.787 1398.69 641.595 1398.11 641.412C1397.55 641.23 1396.8 641.033 1395.87 640.823C1394.96 640.613 1394.13 640.37 1393.37 640.096C1392.62 639.822 1391.98 639.465 1391.44 639.026C1390.9 638.588 1390.48 638.044 1390.17 637.395C1389.87 636.736 1389.72 635.923 1389.72 634.954C1389.72 634.067 1389.9 633.267 1390.27 632.554C1390.64 631.841 1391.13 631.238 1391.76 630.744C1392.4 630.241 1393.15 629.857 1394 629.592C1394.86 629.327 1395.77 629.194 1396.74 629.194C1397.49 629.194 1398.2 629.263 1398.87 629.4C1399.54 629.528 1400.2 629.743 1400.84 630.045C1401.49 630.346 1402.04 630.666 1402.49 631.005C1402.94 631.343 1403.41 631.768 1403.9 632.28L1401.06 635.036C1400.69 634.652 1400.36 634.355 1400.07 634.145C1399.79 633.934 1399.47 633.743 1399.1 633.569C1398.74 633.386 1398.35 633.249 1397.95 633.157C1397.55 633.057 1397.1 633.007 1396.61 633.007C1396.08 633.007 1395.63 633.061 1395.28 633.171C1394.92 633.272 1394.63 633.404 1394.41 633.569C1394.19 633.733 1394.03 633.921 1393.93 634.131C1393.84 634.341 1393.79 634.556 1393.79 634.776C1393.79 635.086 1393.85 635.351 1393.97 635.571C1394.09 635.79 1394.3 635.987 1394.6 636.161C1394.91 636.325 1395.31 636.485 1395.81 636.64C1396.32 636.787 1396.97 636.951 1397.76 637.134C1398.87 637.399 1399.8 637.678 1400.54 637.971C1401.28 638.254 1401.94 638.62 1402.5 639.068C1403.07 639.516 1403.51 640.082 1403.83 640.768C1404.16 641.454 1404.33 642.267 1404.33 643.209ZM1419.59 641.796C1419.59 642.08 1419.58 642.322 1419.57 642.523C1419.57 642.724 1419.55 642.898 1419.53 643.044H1410.72C1410.75 643.547 1410.86 643.977 1411.05 644.333C1411.24 644.681 1411.47 644.964 1411.74 645.183C1412.03 645.403 1412.34 645.563 1412.69 645.663C1413.04 645.764 1413.39 645.814 1413.75 645.814C1414.01 645.814 1414.26 645.796 1414.49 645.759C1414.72 645.714 1414.94 645.645 1415.17 645.554C1415.41 645.453 1415.62 645.339 1415.79 645.211C1415.97 645.083 1416.13 644.941 1416.27 644.786L1419.03 647.076C1418.73 647.46 1418.39 647.803 1417.98 648.104C1417.58 648.397 1417.15 648.648 1416.68 648.858C1416.21 649.06 1415.73 649.21 1415.23 649.311C1414.73 649.421 1414.24 649.476 1413.75 649.476C1412.93 649.476 1412.2 649.375 1411.55 649.174C1410.91 648.982 1410.35 648.721 1409.87 648.392C1409.38 648.063 1408.95 647.684 1408.58 647.254C1408.2 646.815 1407.89 646.331 1407.63 645.801C1407.37 645.261 1407.17 644.662 1407.03 644.004C1406.88 643.337 1406.81 642.601 1406.81 641.796C1406.81 640.672 1406.97 639.639 1407.3 638.697C1407.64 637.747 1408.1 636.933 1408.69 636.256C1409.28 635.58 1409.98 635.054 1410.77 634.68C1411.58 634.296 1412.44 634.104 1413.38 634.104C1414.36 634.104 1415.24 634.309 1416.01 634.721C1416.78 635.123 1417.43 635.676 1417.96 636.38C1418.49 637.075 1418.89 637.888 1419.16 638.821C1419.45 639.753 1419.59 640.745 1419.59 641.796ZM1415.82 640.123C1415.79 639.794 1415.72 639.47 1415.6 639.15C1415.49 638.83 1415.32 638.547 1415.1 638.3C1414.89 638.053 1414.63 637.856 1414.31 637.71C1414 637.555 1413.62 637.477 1413.18 637.477C1412.83 637.477 1412.51 637.545 1412.22 637.683C1411.95 637.82 1411.71 638.007 1411.5 638.245C1411.3 638.483 1411.13 638.761 1411 639.081C1410.89 639.401 1410.81 639.749 1410.77 640.123H1415.82ZM1435.4 641.975C1435.4 643.072 1435.27 644.082 1435.01 645.005C1434.76 645.919 1434.38 646.71 1433.89 647.378C1433.41 648.036 1432.81 648.552 1432.09 648.927C1431.39 649.293 1430.58 649.476 1429.67 649.476C1429.02 649.476 1428.42 649.366 1427.88 649.146C1427.34 648.918 1426.9 648.644 1426.55 648.324V652.643L1422.67 654.577V634.419H1426.55V635.338C1426.98 634.945 1427.46 634.643 1427.98 634.433C1428.5 634.213 1429.06 634.104 1429.67 634.104C1430.45 634.104 1431.19 634.254 1431.89 634.556C1432.58 634.858 1433.19 635.329 1433.71 635.969C1434.23 636.608 1434.64 637.427 1434.95 638.423C1435.25 639.41 1435.4 640.594 1435.4 641.975ZM1431.46 642.057C1431.46 640.658 1431.25 639.593 1430.82 638.862C1430.4 638.131 1429.77 637.765 1428.94 637.765C1428.42 637.765 1427.97 637.861 1427.6 638.053C1427.23 638.245 1426.88 638.56 1426.55 638.999V644.553C1426.72 644.772 1426.88 644.955 1427.05 645.101C1427.22 645.247 1427.42 645.375 1427.64 645.485C1427.86 645.595 1428.09 645.677 1428.35 645.732C1428.61 645.787 1428.88 645.814 1429.16 645.814C1429.91 645.814 1430.48 645.499 1430.87 644.868C1431.27 644.237 1431.46 643.3 1431.46 642.057Z" fill="#A3ABB3"/>
<path d="M1565.19 639.301C1565.19 640.891 1564.98 642.318 1564.55 643.579C1564.13 644.832 1563.53 645.897 1562.77 646.774C1562.01 647.643 1561.09 648.31 1560.02 648.776C1558.96 649.242 1557.79 649.476 1556.51 649.476C1555.22 649.476 1554.05 649.247 1552.99 648.79C1551.93 648.333 1551.02 647.67 1550.26 646.802C1549.5 645.933 1548.91 644.873 1548.49 643.62C1548.07 642.368 1547.86 640.946 1547.86 639.356C1547.86 637.765 1548.07 636.343 1548.49 635.091C1548.92 633.829 1549.52 632.764 1550.29 631.896C1551.05 631.018 1551.97 630.351 1553.04 629.894C1554.11 629.428 1555.29 629.194 1556.57 629.194C1557.85 629.194 1559.01 629.423 1560.06 629.88C1561.12 630.337 1562.03 631 1562.79 631.868C1563.55 632.737 1564.14 633.797 1564.56 635.05C1564.98 636.293 1565.19 637.71 1565.19 639.301ZM1561.15 639.356C1561.15 638.359 1561.03 637.472 1560.8 636.695C1560.58 635.918 1560.26 635.265 1559.84 634.734C1559.43 634.204 1558.94 633.802 1558.36 633.528C1557.8 633.244 1557.17 633.103 1556.49 633.103C1555.8 633.103 1555.17 633.24 1554.61 633.514C1554.04 633.779 1553.56 634.177 1553.15 634.707C1552.76 635.228 1552.45 635.877 1552.23 636.654C1552.01 637.422 1551.9 638.304 1551.9 639.301C1551.9 640.297 1552.02 641.184 1552.25 641.961C1552.48 642.738 1552.8 643.396 1553.21 643.936C1553.62 644.466 1554.11 644.873 1554.67 645.156C1555.25 645.43 1555.88 645.567 1556.57 645.567C1557.25 645.567 1557.88 645.43 1558.45 645.156C1559.01 644.882 1559.49 644.484 1559.89 643.963C1560.29 643.433 1560.6 642.784 1560.82 642.016C1561.04 641.239 1561.15 640.352 1561.15 639.356ZM1580.72 646.184C1580.36 646.66 1579.98 647.099 1579.58 647.501C1579.18 647.903 1578.75 648.251 1578.26 648.543C1577.78 648.836 1577.24 649.064 1576.66 649.229C1576.07 649.393 1575.41 649.476 1574.68 649.476C1573.72 649.476 1572.82 649.288 1571.98 648.913C1571.14 648.539 1570.4 648.013 1569.77 647.336C1569.15 646.66 1568.66 645.851 1568.31 644.909C1567.95 643.968 1567.77 642.93 1567.77 641.796C1567.77 640.672 1567.94 639.639 1568.29 638.697C1568.65 637.747 1569.14 636.933 1569.77 636.256C1570.4 635.58 1571.15 635.054 1572.01 634.68C1572.88 634.296 1573.82 634.104 1574.85 634.104C1576.09 634.104 1577.2 634.378 1578.16 634.926C1579.13 635.466 1579.97 636.279 1580.69 637.367L1578.14 639.945C1577.92 639.634 1577.69 639.351 1577.45 639.095C1577.22 638.839 1576.98 638.62 1576.71 638.437C1576.45 638.254 1576.15 638.112 1575.83 638.012C1575.51 637.902 1575.16 637.847 1574.76 637.847C1574.3 637.847 1573.88 637.943 1573.5 638.135C1573.13 638.318 1572.81 638.583 1572.54 638.93C1572.28 639.269 1572.07 639.68 1571.93 640.165C1571.78 640.649 1571.71 641.193 1571.71 641.796C1571.71 642.391 1571.78 642.93 1571.93 643.415C1572.07 643.89 1572.28 644.301 1572.54 644.649C1572.81 644.996 1573.13 645.266 1573.5 645.458C1573.88 645.641 1574.3 645.732 1574.76 645.732C1575.14 645.732 1575.48 645.691 1575.79 645.609C1576.11 645.526 1576.41 645.407 1576.68 645.252C1576.97 645.087 1577.23 644.891 1577.48 644.662C1577.74 644.425 1577.99 644.155 1578.25 643.853L1580.72 646.184ZM1591.84 648.571C1591.52 648.826 1591.09 649.041 1590.55 649.215C1590.01 649.389 1589.44 649.476 1588.83 649.476C1588.24 649.476 1587.7 649.366 1587.22 649.146C1586.73 648.927 1586.31 648.621 1585.97 648.228C1585.63 647.825 1585.36 647.355 1585.17 646.815C1584.99 646.276 1584.9 645.682 1584.9 645.033V638.067H1582.43V634.419H1584.9V630.621L1588.78 628.687V634.419H1592.32V638.067H1588.78V643.99C1588.78 644.347 1588.81 644.64 1588.87 644.868C1588.94 645.097 1589.03 645.279 1589.15 645.417C1589.27 645.545 1589.41 645.636 1589.59 645.691C1589.77 645.737 1589.98 645.759 1590.2 645.759C1590.55 645.759 1590.89 645.673 1591.22 645.499C1591.56 645.325 1591.95 645.037 1592.4 644.635L1591.84 648.571Z" fill="#A3ABB3"/>
<path d="M1721.93 649.16H1718.42L1709.88 636.476V649.16H1706V629.496H1709.77L1718.05 641.865V629.496H1721.93V649.16ZM1738.92 641.796C1738.92 642.93 1738.75 643.968 1738.41 644.909C1738.08 645.851 1737.62 646.66 1737.01 647.336C1736.42 648.013 1735.71 648.539 1734.89 648.913C1734.07 649.288 1733.19 649.476 1732.23 649.476C1731.27 649.476 1730.38 649.288 1729.57 648.913C1728.75 648.539 1728.05 648.013 1727.46 647.336C1726.87 646.66 1726.41 645.851 1726.07 644.909C1725.74 643.968 1725.58 642.93 1725.58 641.796C1725.58 640.672 1725.74 639.639 1726.07 638.697C1726.41 637.747 1726.87 636.933 1727.46 636.256C1728.05 635.58 1728.75 635.054 1729.57 634.68C1730.38 634.296 1731.27 634.104 1732.23 634.104C1733.19 634.104 1734.07 634.296 1734.89 634.68C1735.71 635.054 1736.42 635.58 1737.01 636.256C1737.62 636.933 1738.08 637.747 1738.41 638.697C1738.75 639.639 1738.92 640.672 1738.92 641.796ZM1734.98 641.796C1734.98 641.239 1734.93 640.722 1734.81 640.247C1734.7 639.762 1734.53 639.342 1734.3 638.985C1734.07 638.629 1733.78 638.35 1733.43 638.149C1733.1 637.948 1732.69 637.847 1732.23 637.847C1731.76 637.847 1731.36 637.948 1731.02 638.149C1730.68 638.35 1730.4 638.629 1730.17 638.985C1729.95 639.333 1729.79 639.749 1729.68 640.233C1729.57 640.709 1729.51 641.23 1729.51 641.796C1729.51 642.363 1729.57 642.889 1729.68 643.373C1729.79 643.858 1729.95 644.274 1730.17 644.621C1730.4 644.969 1730.68 645.243 1731.02 645.444C1731.36 645.636 1731.76 645.732 1732.23 645.732C1732.69 645.732 1733.1 645.627 1733.43 645.417C1733.78 645.197 1734.07 644.905 1734.3 644.539C1734.53 644.173 1734.7 643.753 1734.81 643.277C1734.93 642.802 1734.98 642.308 1734.98 641.796ZM1749.51 649.16H1745.52L1740.21 634.419H1744.47L1747.57 644.141L1750.66 634.419H1754.81L1749.51 649.16Z" fill="#A3ABB3"/>
<path d="M1883.97 639.328C1883.97 640.48 1883.84 641.522 1883.58 642.455C1883.32 643.387 1882.96 644.219 1882.49 644.95C1882.03 645.682 1881.47 646.312 1880.83 646.843C1880.2 647.364 1879.51 647.798 1878.76 648.145C1878.02 648.493 1877.24 648.749 1876.4 648.913C1875.58 649.078 1874.75 649.16 1873.91 649.16H1868.04V629.496H1874.2C1875.59 629.496 1876.89 629.674 1878.09 630.031C1879.29 630.378 1880.32 630.941 1881.19 631.718C1882.06 632.495 1882.74 633.509 1883.23 634.762C1883.73 636.014 1883.97 637.536 1883.97 639.328ZM1879.93 639.328C1879.93 638.323 1879.81 637.445 1879.58 636.695C1879.37 635.946 1879.02 635.319 1878.54 634.817C1878.08 634.314 1877.47 633.939 1876.73 633.692C1875.99 633.445 1875.1 633.322 1874.06 633.322H1871.97V645.334H1873.91C1874.94 645.334 1875.83 645.193 1876.58 644.909C1877.34 644.617 1877.97 644.21 1878.46 643.689C1878.95 643.159 1879.32 642.523 1879.56 641.783C1879.8 641.042 1879.93 640.224 1879.93 639.328ZM1899.28 641.796C1899.28 642.08 1899.27 642.322 1899.26 642.523C1899.25 642.724 1899.24 642.898 1899.22 643.044H1890.4C1890.44 643.547 1890.55 643.977 1890.73 644.333C1890.93 644.681 1891.16 644.964 1891.43 645.183C1891.72 645.403 1892.03 645.563 1892.38 645.663C1892.73 645.764 1893.08 645.814 1893.43 645.814C1893.7 645.814 1893.95 645.796 1894.18 645.759C1894.4 645.714 1894.63 645.645 1894.86 645.554C1895.1 645.453 1895.3 645.339 1895.48 645.211C1895.66 645.083 1895.82 644.941 1895.96 644.786L1898.71 647.076C1898.42 647.46 1898.07 647.803 1897.67 648.104C1897.27 648.397 1896.84 648.648 1896.37 648.858C1895.9 649.06 1895.42 649.21 1894.92 649.311C1894.42 649.421 1893.93 649.476 1893.43 649.476C1892.62 649.476 1891.89 649.375 1891.24 649.174C1890.6 648.982 1890.04 648.721 1889.55 648.392C1889.07 648.063 1888.64 647.684 1888.27 647.254C1887.89 646.815 1887.57 646.331 1887.32 645.801C1887.06 645.261 1886.86 644.662 1886.72 644.004C1886.57 643.337 1886.5 642.601 1886.5 641.796C1886.5 640.672 1886.66 639.639 1886.99 638.697C1887.33 637.747 1887.79 636.933 1888.37 636.256C1888.97 635.58 1889.66 635.054 1890.46 634.68C1891.26 634.296 1892.13 634.104 1893.06 634.104C1894.05 634.104 1894.93 634.309 1895.7 634.721C1896.47 635.123 1897.11 635.676 1897.64 636.38C1898.17 637.075 1898.58 637.888 1898.85 638.821C1899.13 639.753 1899.28 640.745 1899.28 641.796ZM1895.51 640.123C1895.48 639.794 1895.4 639.47 1895.29 639.15C1895.18 638.83 1895.01 638.547 1894.79 638.3C1894.58 638.053 1894.32 637.856 1894 637.71C1893.69 637.555 1893.31 637.477 1892.87 637.477C1892.52 637.477 1892.2 637.545 1891.91 637.683C1891.64 637.82 1891.4 638.007 1891.19 638.245C1890.98 638.483 1890.82 638.761 1890.69 639.081C1890.57 639.401 1890.5 639.749 1890.46 640.123H1895.51ZM1914.55 646.184C1914.2 646.66 1913.82 647.099 1913.41 647.501C1913.02 647.903 1912.58 648.251 1912.1 648.543C1911.61 648.836 1911.08 649.064 1910.49 649.229C1909.91 649.393 1909.25 649.476 1908.52 649.476C1907.56 649.476 1906.66 649.288 1905.82 648.913C1904.98 648.539 1904.24 648.013 1903.61 647.336C1902.99 646.66 1902.5 645.851 1902.14 644.909C1901.79 643.968 1901.61 642.93 1901.61 641.796C1901.61 640.672 1901.78 639.639 1902.13 638.697C1902.49 637.747 1902.98 636.933 1903.61 636.256C1904.24 635.58 1904.99 635.054 1905.84 634.68C1906.71 634.296 1907.66 634.104 1908.68 634.104C1909.93 634.104 1911.03 634.378 1912 634.926C1912.97 635.466 1913.81 636.279 1914.52 637.367L1911.97 639.945C1911.75 639.634 1911.53 639.351 1911.29 639.095C1911.06 638.839 1910.81 638.62 1910.55 638.437C1910.28 638.254 1909.99 638.112 1909.67 638.012C1909.35 637.902 1908.99 637.847 1908.6 637.847C1908.13 637.847 1907.71 637.943 1907.34 638.135C1906.96 638.318 1906.64 638.583 1906.38 638.93C1906.11 639.269 1905.91 639.68 1905.76 640.165C1905.62 640.649 1905.54 641.193 1905.54 641.796C1905.54 642.391 1905.62 642.93 1905.76 643.415C1905.91 643.89 1906.11 644.301 1906.38 644.649C1906.64 644.996 1906.96 645.266 1907.34 645.458C1907.71 645.641 1908.13 645.732 1908.6 645.732C1908.98 645.732 1909.32 645.691 1909.63 645.609C1909.95 645.526 1910.25 645.407 1910.52 645.252C1910.8 645.087 1911.07 644.891 1911.32 644.662C1911.57 644.425 1911.83 644.155 1912.08 643.853L1914.55 646.184Z" fill="#A3ABB3"/>
</g>
<defs>
<filter id="filter0_d_2609_8513" x="-0.000980377" y="87.1986" width="2024.56" height="700.658" filterUnits="userSpaceOnUse" color-interpolation-filters="sRGB">
<feFlood flood-opacity="0" result="BackgroundImageFix"/>
<feColorMatrix in="SourceAlpha" type="matrix" values="0 0 0 0 0 0 0 0 0 0 0 0 0 0 0 0 0 0 127 0" result="hardAlpha"/>
<feOffset dy="6.48084"/>
<feGaussianBlur stdDeviation="8.64112"/>
<feComposite in2="hardAlpha" operator="out"/>
<feColorMatrix type="matrix" values="0 0 0 0 0 0 0 0 0 0 0 0 0 0 0 0 0 0 0.5 0"/>
<feBlend mode="normal" in2="BackgroundImageFix" result="effect1_dropShadow_2609_8513"/>
<feBlend mode="normal" in="SourceGraphic" in2="effect1_dropShadow_2609_8513" result="shape"/>
</filter>
<linearGradient id="paint0_linear_2609_8513" x1="17.2813" y1="122.843" x2="2013.85" y2="695.073" gradientUnits="userSpaceOnUse">
<stop stop-color="#FFE600"/>
<stop offset="1" stop-color="#2E2E38"/>
</linearGradient>
<linearGradient id="paint1_linear_2609_8513" x1="-787.277" y1="242.906" x2="-787.277" y2="538.906" gradientUnits="userSpaceOnUse">
<stop stop-color="#293038"/>
<stop offset="0.5" stop-color="#293038" stop-opacity="0"/>
</linearGradient>
<linearGradient id="paint2_linear_2609_8513" x1="974.723" y1="227.923" x2="974.723" y2="692.046" gradientUnits="userSpaceOnUse">
<stop stop-color="#00C85D"/>
<stop offset="1" stop-color="#00129C" stop-opacity="0"/>
</linearGradient>
</defs>
</svg>
