<svg width="736" height="295" viewBox="0 0 736 295" fill="none" xmlns="http://www.w3.org/2000/svg">
<g opacity="0.99">
<path d="M722.444 283.518H101.504V283.134H721.769L722.098 115.5H723.005L722.444 283.518Z" fill="#FFE600"/>
</g>
<g opacity="0.99">
<path d="M101.818 283.521H60.5677L9.33594 247.26V41.1417L67.4629 0H722.508L722.682 89H721.833V0.477805H67.7522L10.011 41.3465V247.055L60.8329 283.044H101.818V283.521Z" fill="#FFE600"/>
</g>
<g opacity="0.99">
<path fill-rule="evenodd" clip-rule="evenodd" d="M722.568 115.528C715.176 115.528 709.156 109.505 709.156 102.108C709.156 94.7107 715.176 88.6875 722.568 88.6875C729.979 88.6875 735.998 94.7107 735.998 102.108C735.998 109.505 729.979 115.528 722.568 115.528ZM722.568 89.2145C715.458 89.2145 709.683 94.993 709.683 102.108C709.683 109.223 715.458 115.001 722.568 115.001C729.678 115.001 735.472 109.223 735.472 102.108C735.472 94.993 729.678 89.2145 722.568 89.2145Z" fill="#FFE600"/>
</g>
<path opacity="0.99" d="M731.775 101.542C731.775 96.539 727.665 92.4961 722.579 92.4961C717.523 92.4961 713.383 96.539 713.383 101.542C713.383 106.545 717.523 110.588 722.579 110.588C727.665 110.588 731.775 106.545 731.775 101.542Z" fill="#FFE600"/>
<path opacity="0.99" d="M19.9458 164C19.9458 158.469 15.4564 154 9.97292 154C4.45735 154 0 158.469 0 164C0 169.531 4.45735 174 9.97292 174C15.4564 174 19.9458 169.531 19.9458 164Z" fill="#FFE600"/>
<g opacity="0.99">
<path d="M22.6205 82.6556C22.2587 82.6556 21.9211 82.515 21.6558 82.2056C21.1252 81.5869 21.1252 80.6025 21.6558 79.9838L76.4294 16.1141C76.6706 15.8328 77.0323 15.6641 77.37 15.6641H292.485C293.208 15.6641 293.811 16.3672 293.811 17.239C293.811 18.1109 293.208 18.814 292.485 18.814H77.9488L23.5611 82.2056C23.2958 82.515 22.9582 82.6556 22.6205 82.6556Z" fill="#32FFFF"/>
</g>
<g opacity="0.99">
<path d="M9 42.2826L67.5 0H9V42.2826Z" fill="#FFE600"/>
</g>
<g opacity="0.99">
<path d="M105.118 295.004H54.421L54.3004 294.928L7.70312 257.505L8.1855 257.125L54.6862 294.472H105.118V295.004Z" fill="#FFE600"/>
</g>
</svg>
